<?xml version="1.0" encoding="utf-8"?>
<!-- Generator: Adobe Illustrator 28.0.0, SVG Export Plug-In . SVG Version: 6.00 Build 0)  -->
<svg version="1.1" id="Layer_1" xmlns="http://www.w3.org/2000/svg" xmlns:xlink="http://www.w3.org/1999/xlink" x="0px" y="0px"
	 viewBox="0 0 847 571" style="enable-background:new 0 0 847 571;" xml:space="preserve">
<style type="text/css">
	.st0{fill:#001F3F;stroke:#FFFFFF;stroke-width:0.4061;stroke-miterlimit:10;}
	.st1{fill-rule:evenodd;clip-rule:evenodd;fill:#001F3F;stroke:#FFFFFF;stroke-width:0.4061;stroke-miterlimit:10;}
	.st2{fill:#FFFFFF;}
	.st3{fill:#001F3F;}
	.st4{fill:#FFD765;}
</style>
<g>
	<g>
		<path class="st0" d="M188.6,251l2.5,3.7l0,0L188.6,251z M180,267.2l-2.1-0.8l0.2-0.9l-0.1-2.2l1-2.3l-0.5-0.9l-1.8-0.2l-0.1-2.1
			l0.2-1.4l-0.7-2.9l-0.8-1.5l-0.1-0.8l2.2-0.2l0.8-2.1l0.8-0.7l0,0l-0.3-0.5l-0.6-0.9l-1.3-1.3l-1.5,0.1l-2.4-0.1l-2.2-1.3
			l-0.1-3.1l0.5-2.4l-0.8-1.6l-1.4-0.3l-0.1-0.9l-0.7-0.7c-0.1-0.1-0.2-0.1-0.3-0.2c-3.3-1.3-5.6-2.6-9.2-2.6c-2.4,0-3.9-1-6.2-1.4
			c-1-0.2-1.4-0.2-2.2-0.5c-0.7-0.2-1.5-0.3-2.2-0.5c-1.1-0.3-4.4,1.9-5,2.5c-0.4,0.5-1,0.7-1.5,1.2c-0.2,0.3-0.5,1.1-0.8,1.3
			c-0.6,0.4-1.9,0.1-2.6,0.1c-1.6,0-3.2,0.2-4.8,0c-1.8-0.2-2.7-1.4-4.7-1.4c-3.4,0-7,0.4-10.2-0.8c-1.2-0.5-2.6-1.6-3.6-2.4
			c-1.1-1-2.3-1.8-3.4-2.7c-1-0.8-1.8-1.8-2.4-2.9c-0.5-1-0.2-0.9-1.2-1.7c-0.6-0.5-1.4-1-2-1.4c-1-0.5-2.7-1.5-3.7-1.7
			c-1.9-0.4-2.8,0.3-4.5-1c-2-1.5-5.4-3.1-7.8-2.1c-0.7,0.3-1.2,0.9-2,1.1c-0.8,0.1-1.6-0.2-2.4,0c-0.9,0.2-1.4,0.6-2.4,0.6
			c-1,0.1-2.1,0-3.1,0c-1.6,0-2.9-0.3-4.2,0.7c-1.2,0.9-2.2,2.1-3.5,2.9c-2.6,1.7-5.2,1.9-8.3,1.9c-1.6,0-3.2,0-4.8,0
			c-0.8,0-2-0.2-2.7-0.1c-1.1,0.3-1.1,1.1-2,1.6c-1.2,0.8-3.4,1.2-4.8,1.7c-1.9,0.6-3.4,0.9-5.4,0.9c-1.4,0-2.6,0.4-3.9,0.8
			c-1.6,0.5-1.8,1.6-2.7,2.8c-0.7,1-2.2,2.2-3.1,3c-1.2,1.1-3.1,2.7-4.6,2.9c-2,0.2-3.4-0.5-5.3-0.7c-0.8-0.1-1.7,0.2-2.5,0
			s-1.1-0.6-2.1-0.6c-2.4,0-1.7,1.5-1.7,3.4c0,1.3,0.4,3.3,1.3,4.4c1.2,1.4,2.5,1.2,2.8,3.5s-0.8,3.4-1.3,5.4
			c-0.5,1.8,0.4,2.2,1.3,3.4c1.2,1.5,0.5,3,0,4.8c-0.4,1.7-0.7,3-0.7,4.8c0,1.5,0.4,3.7,0,5.1c-0.2,0.9-0.9,0.9-0.8,2
			c0.1,0.6,0.8,1.2,1.1,1.6c0.9,0.9,2,1.6,2.8,2.6c1.2,1.5,0.8,3.5,0.9,5.3c0,1.2,0,2.2-0.5,3.3c-0.4,0.9-1.1,1.1-0.8,2.1
			c0.3,1.2,3.1,2.8,4.1,3.3c2.7,1.1,5.3,0.4,8.1,1c1.9,0.4,3.6,0.8,5.5,0.4c1.7-0.4,3.9-1.1,5.1-2.1c2.5-1.9,5-3.2,7.6-4.8
			c3.1-1.9,5.8-1.4,8.9,0.5c1.4,0.9,2.8,0.9,4.1,1.7c0.5,0.3,0.9,0.5,1.4,1c0.5,0.6,0.6,1.2,1,1.7c1,1,3.6,1,4.9,1.5
			c1.5,0.5,2.9,0.5,4.6,0.5c1.6,0,2.5-0.6,4.1-0.7c2-0.1,3-0.2,4.8-1.1c1.7-0.8,3.4-1.9,5.2-2.6c1.9-0.7,3.8-1.4,5.6-2.2
			c1.4-0.7,2.4-1.2,3.6-2.2c1.5-1.2,2.5-2.1,4.4-2.1c1.7,0,3.4,0,5.1,0c1.8,0,2.4,0.4,3.9,1.2c0.9,0.5,1.8,0.8,2.6,1.3l1,0.2
			l1.6-0.3l1.5-0.6L123,282l1-0.6l0.1-2.9l0.4-1.2l2.2,0.6l1.3,0.3l3.7-1.4l0.9-0.1l1.1-0.7l4-0.4l1.4,0.4l0.8,0.7l2.5,0.5l3.5,0.1
			l0.3-0.7l2-0.6l1.2-1.3l2.7-0.8h1.9l1.5-0.3l3.9,0.2l3.1-1.1l2.2-0.1l0.9,0.8l-0.3-0.3l2.1-1.7h1.8l0.8-0.6h3.2l2.7,0.7l2-0.6
			l1.1,0.7l-0.1,1.5l1.3,0.6l1.7-0.5l0.4-1.3l-0.7-1.8L180,267.2z"/>
		<path class="st0" d="M191.5,230.5l-2-1.2l0.8-2.8l1.1,0.1c-0.6-1-1.5-2.1,0.4-1.9c-2.3-1.2-4.9-2.7-7.2-3.3
			c-1.3-0.4-2.7-0.7-3.7-1.8c-0.9-1.1-1.3-2.5-2.2-3.5c-0.9-1.1-2-1.5-3.1-2.4c-0.9-0.7-1.4-1.7-2.3-2.4c-2.5-1.9-5.4-2.9-8.4-3.5
			c-1.6-0.4-3.2-0.7-4.8-1.3c-1.6-0.7-2.6-0.8-4.4-0.8c-1.5,0-3.2,0.2-4.8,0c-1.4-0.2-2.4-0.9-3.7-1.5c-2.7-1.1-5.4-2.3-8.2-3
			c-0.9-0.2-3.9-1-4.7-0.3c-1.2,0.9-0.1,3.4,0.8,4.2c1.1,1,2.3,1.4,3.6,2c0.7,0.3,1.1,0.8,1.8,1.1c0.9,0.4,1.7,0.4,2.3,1.2
			c0.9,1,1.4,2.5,1.7,3.7c0.3,1.4,1.1,2.6,1.5,4.1c0.5,1.7,0.9,3,0.8,4.8c0,0.7,0,1.4,0,2c0,1.1-0.3,1.4-0.5,2.2
			c-0.3,1.1-0.4,2.2-0.6,3.3c0.7,0,1.4,0.1,2.2,0.3c0.7,0.2,1.5,0.3,2.2,0.5c0.8,0.3,1.2,0.3,2.2,0.5c2.2,0.4,3.8,1.4,6.2,1.4
			c3.5-0.1,5.9,1.3,9.2,2.6c0.1,0.1,0.2,0.1,0.3,0.2l-0.6-0.6l2.4-0.8l3.5-0.8l1,0.2l4.3-0.1l0.4,0.4l0.1-1.3l2.9-1.1l4.3,2.4
			l2.9,0.1l2.8,1.4l0.4-2.8L191.5,230.5z"/>
		<path class="st1" d="M472.7,136.3h2.2l1.6,0.6h1.3l67.9,2l120.8-13.1l14.9-15.6l3.1-1l1.1,0.2l0.3,0.5l1.4-0.3l2.3,0.3l1.1,0.9
			l0.9-0.1l3.7-3.5l1.8-1.2l2.8-0.5l1.2-1.2l0.4-1.5l-0.3-1.6l-0.6-0.4l-0.6,0.4l-0.6-0.4l-0.8-0.1l-0.1-2.1l0.4-0.6v-2.2l-0.6-1.4
			l0.3-0.9l0.9-0.5l0.2-1.4l-0.9-0.9l-0.2-1.7l0.3-0.8l-0.8-1.3l0.1-1.3l0.9-1.6l0.9-0.8l0.3-1.8l1-1.5l0.9-0.7l0.1-1.8l-0.3-0.9
			v-1.2l-1.1-0.8l-0.6-1.4l-1.1-1.8l-0.9-0.2l-1.1,0.4l-1.7,1.1l-0.8-0.1l-0.5-0.6V70l0.5-0.7v-0.8l0.6-0.8l0.4-1.4l1.1-1.3v-1
			l0.8-0.7l2-0.2l0.9-0.3l1-0.1l0.3-0.3l1.1,0.1l1.2-0.5l0.6-1.2h1.3l0.9-1l1.7,0.3l0.9-0.2l1.6,0.1l0.7-0.6h0.6l0.4-1.2l2.2-0.3
			l0.4-0.2l0.9,0.2l1.2,0.1l1.1,0.8L721,59l1,0.8l0.3,0.7h1.8l1-0.3l0.5,0.5l1.4,0.7l0.6-0.3l-0.1-0.9l0.7-0.4l0.7,0.3h1.1l0.6-0.3
			l0.8,0.9l0.8-0.1l1,0.4l0.5,0.7l-0.2,0.8l0.3,0.8h0.9l0.4,0.6l0.8-0.6l1.1,0.2l0.3,0.7l-0.4,0.8l0.4,0.7l1.3,0.4l0.8-0.1l0.5,0.5
			v0.7l0.8,0.4l0.5,0.9l0.1,1.1l0.4,0.9V71l0.3,0.5l2,0.1l0.2,0.9l-0.4,1l0.2,0.8l1.8,1.1l0.6,1.3l0.9,1.2l0.3,1.1l0.8,0.4l0.5,1.3
			l1,0.7l-0.1,0.7l-0.2,0.9l0.4,0.2l0.7-0.4L751,84l0.2,0.9l1.5,2l2.8,1.8l0.5,1.4l0.3,1.6l0.6,0.5l0.1,1.6l0.9,0.5l0.8,0.2l0.3,1.3
			l-0.2,1.1l0.8,1.5l1.7,1.8l1.3,0.4l0.6,1l1,0.2l0.8-0.3l0.8,0.4l0.6-0.3l1.6,0.2l0.8-0.7h1.1v0.4l-0.6,0.7l0.5,0.4l1.7,0.2
			l0.8,0.4l0.5,0.6l0.9,0.6l0.2-0.6l0.8-0.3l0.8,0.2l0.3-0.9l0.8-0.1l0.6,0.6l0.3,0.9l0.8,0.9l0.8,0.1l0.2,0.8l0.8,0.7h0.4l0.7,0.7
			l0.2,0.8l1.7,0.8l0.4,0.4l0.7,0.1l0.8,0.6l1.1,0.2l0.8-0.2l0.9-0.1l0.8-0.6l0.6-0.1l0.6,0.3l-0.2,1l-0.7,0.9l0.1,1.1l0.1,0.9
			l1.3-0.1l0.3,1.4l0.5,1.3l-0.3,1.4l-0.4,0.4v1.1l1.5,1.8l0.7,0.4l1.2,1.6l0.4,0.8l1.2-0.3l1-0.8h1.1l0.7,1l0.4,1l0.9-0.4l0.6-0.6
			l1.1,0.3l0.8-0.3l2.2-0.4l1-0.9l0.8-0.4L806,121l0.4-1.4l1-0.5v-1.2l0.5-1.1l1-0.1h1.6l0.4-1.6l0.8-0.2l0.8-0.3l0.2-1.2l0.9-0.8
			l1.3-0.2l0.8-0.8l1.5,0.6l0.8,0.7l1.3,0.1l0.4,0.8l0.8,1.4l-0.8,0.7l0.3,0.8l1.3,1.4l0.2,1.1l0.7,0.8l0.9,0.6l-0.3,1.6l-0.1,1.3
			l-0.3,0.6l-1.2,0.2l-1.1,1.3v0.7l0.7,0.9l0.4,0.4l-0.1,1.3l-0.4,1.1l0.5,0.7l0.7,0.5l-0.1,0.9l0.3,0.5l0.1,0.6l-0.3,0.3l-0.5,0.2
			l0.1,1.8l0.6,1.6l0.4,0.8v0.6l-0.7,0.6l-0.3,1l0.5,0.8v0.9l0.4,0.7l-1.1,0.5l-0.2,0.4l0.4,0.8l0.3,1.2l-0.5,0.6l-0.7,1.5l0.2,0.9
			l0.3,0.8l-0.3,0.6l0.1,0.8l0.5,0.9l0.2,1.1l-0.6,0.8h-0.9l-0.7-0.2l-4.9-0.9l-1-0.4l-1.2-0.3l-0.6,0.2l-1.4,2.2l-0.3,1l-0.7,1
			l-0.9,0.1l-0.9,0.6l-0.3,0.7l0.6,1.3l1.8,2.8l0.4,1.1l0.5,0.9l1,1.3l-0.1,1.4l0.2,1.9l0.2,1.3v2.6l0.9,0.7l0.1,1.4l0.1,1.4
			l-0.4,0.7l-0.1,1l0.2,0.8v1.3l-0.5,0.1l-1.8-0.2l-0.9,0.5l-0.1,0.6l0.3,1.3l0.6,0.4v0.9l-0.3,0.8l-6.7,5.3l-2,11.8L778,216.4
			l-3.8,1.8H774l-0.6-1.4l-2.2,2.6l-1.7,0.1l-0.9,0.3l-0.8-0.7l-2,1.5H764l-0.3,1.6l-1-0.1l-3.4,2.6l-1.9,1.5l0.6,1.5l-0.2,0.6
			l-2.2,0.9l-1.2,1.9h-0.9l-0.9,1.2l-1,0.2l-0.2-1.2l-1.2-0.8l0.6-1.2l1.3-0.1l0.8-1.1l1.7,0.2l0.6-0.4l0.2-0.9l-0.9-0.2l-0.2-0.8
			l1.5-1l0.7-1.4l-1.8,1.4l-1.7,0.6l-0.7-0.8v-0.9l0.6-0.3l0.1-1.1l-1.7-1.7l0.3-2l-0.2-0.6l1.5-0.1l0.2-1.9l1.6-2.1l0.3-1.1
			l0.9-0.5l-0.2-1.3l-3.4-2l-2.4-2.9l-0.5,1.5h-1.3l-0.7-0.5l-1.8,0.1l-1,1.7l-0.6,0.3l-0.3,1.8l-1.6,1.7l-0.2,3l-0.8,0.2l-1.2,2.1
			l-1.6,0.1l-2.7,1.5l-0.8,3.9l-0.6,0.9l0.5,0.4l0.3,1.9h-1.1l0.5,0.8l-0.8,1.6l-2,0.1l-2.5,0.1l-2.9-1.1l-0.2,0.9l-0.9,0.7
			l-0.2,1.6l-0.2,0.8l0.1,0.8l-0.7,0.6l0.8,1.8l0.2,1.7l1.6,0.9l2.6,1.7l0.3,0.9l1.2,2l0.1-0.7l0.5,0.8l0.6-0.9h0.9l0.1,0.8l0.8-0.5
			l2-0.1l0.3,1.5v2.1l2.1,4.1l2,0.1l1.5-0.9l1.5,0.6l0.7-0.6l0.8-1.5l-0.7-0.9l-0.4-0.2l2.1-0.8l1-0.9v-1.4l-0.6-0.5l1.9-0.1
			l3.5-1.6l0.5,0.6l0.9,0.3l0.9,1.3l0.9,0.4l1,0.9l4.9-0.2l0.6-0.7l1.7-0.1l-0.1,0.6l2.2-0.1l1.8-0.3l1,0.5l-1.7,0.5l-0.1,0.9
			l1.3,1.8h-0.8l-1,0.5l0.2,1.6l1.2,0.2v0.7l-1.9,1.6l-1.9-1.3l-0.2-0.8l-0.7,0.9l-0.6-0.9l-1.6,2.2h-1l-1.4,1.2l-1.4-0.1l-0.3,0.9
			l-1.3-1l-1.8,0.2l1.8,1.1l0.2,1.2l-1.9,0.4l-0.1,1.6l-2.3-0.1l-1.2,1.3l0.7,0.9l1.5,0.9l-1.4,1.6l-0.8-0.5l-1.4,2.3l-1.1,0.3
			l-0.5-0.3l-0.4,2.2l0.6,1.8l-0.6,2.6l0.1,3.8l0.6-0.1l4,1.9v1.1l1.1-0.6l4.3,2.2l2.3,4.8l0.5,0.1l-0.8,2l1.5,0.5l0.2,2.3l2.9,2.1
			l0.1,2.3l2,2.9l1.5,0.6l1.6-0.1l0.8,0.6v0.6l1.8,2.2l1,0.4l1.1,2.2l-0.9,0.5l-3.1-1.2l-2.2,1.3l-1.5-1.6l-1.2-0.1l-1.7-1.2
			l-2.4-0.3l-1,1.3H757l-1-0.8l-0.9-2.3l-2,0.8l-1.2-0.5l-0.4,0.5h-1l-0.9-0.3l-1.4,0.7l-1.8,3.5l2.2-2.6l1.7-0.6l2,0.2l1.8-0.7
			l0.8,0.4l0.1,0.8l2,1.8l1.2,0.3l2.5-1.7l1.5,0.1l3.1,3l2.6,1.5l4,2.5l1.9,3l-0.1,1.1l-2.1,0.2l-1.8,2.1l-0.9-0.1l-0.8,0.7
			l-0.1,1.3l-1.3,0.6l-1.9-0.9l-1,0.8l-1-0.1l-1.7,1.5l-0.2,1.8l0.5-1.3l1.6-1.3l1.6-0.4l1.6,2.3l1.2,0.4l2.4-2l1.8,0.3l2.5,3.2
			l0.4-0.7l0.6,0.8h1.5l0.2,0.5l-3.4,3.2l-2.1,0.4v1.4l1,0.2l2-1.7l1.6,0.3v-0.7l-0.3-0.4l0.9-0.9l0.8,0.5l0.2,2.3l0.5,1l-1,0.8
			l-0.1-0.6L776,327l-0.2,0.8l-0.5,0.3l-1.5-0.4l-1.6,1.4l-0.1,0.7l2.5-0.1l0.8,0.8l-0.2,0.6l-0.5-0.1l-1,1l1,0.5l0.7,0.8l-0.9,0.8
			l-1-0.2l-0.6,0.5l0.7,0.6l1.5,0.1l0.8,1.4l-1.1,0.7l-0.3,1.5l-0.4-0.6l-0.3-1.2l-1.2,0.2l-1.2,2.7l-0.9,0.7l-2.1-0.7l1.5,0.8v0.8
			l0.6,0.9l-0.9,0.6l-0.1,1l0.6,0.9l-0.5,0.6l0.1,1.3l-1.3,0.6l-1.1-1.1l-0.3,1.3l1.2,0.1l1,1.3l-1.8-0.1l-0.1,0.9l-1.9,2h-1
			l0.1-1.5l-0.8,0.1l-0.5-0.1l-0.3,1.3l-1-0.2l0.6,0.8l-0.8,0.7l1.2,0.1l1,1.4H762l1.9,1.6l0.9-0.9l0.8,0.9l-2.5,1.1l-1.6,1.1
			l-0.3,1.2l0.6-0.6l1.2-0.1l0.9,0.9l-1.8,1.5l1.3,0.4l-0.2,1l-1,0.3l0.3,0.9h0.8l0.6,1.1l-0.1,1.9l-0.8-1.3h-1v-1l-1.2-1l-0.5,0.9
			h-0.8l-0.1,1.2l1.3,1l-0.1,1.3l-0.5-0.8h-0.8l-0.6-0.8l-1.1,0.3l0.8,0.6l0.2,1.4h1.1l0.2,0.4l-0.9,1l-1.6-1.1l-0.2,1l0.5,0.8
			l1.3,0.4l-0.6,1.6l-2.1-1.3l-0.8,0.8l-0.6-0.6l-1.2,1.6l-2.6,0.1l1.9,1.5l1.1-0.4l1.3,0.3l-0.6,1.2l-0.9,0.1l-0.2,1.6l-0.9-1
			l-0.9,1.4l-0.5,0.3l-0.1-0.6l-0.7,0.1l-0.2,1.2h-0.8l-0.3,1.8H748l-0.2-0.7l-1.9,0.3l-0.5,0.8l-0.8-0.2l0.7,1.6l-0.5,1.6l-0.6,0.9
			l0.6,1l-1.3,0.6l-0.8-0.2l-0.5,0.7l-0.2-0.9l-0.7,0.6l-0.9,0.9l-1.8,0.2l-0.2,0.8h-1.3l-0.1-0.5h-0.8l-0.2,1.3l-0.8,0.6l-1.2-1.3
			l-0.6-0.9l-0.3,0.8l-1.2,0.3l-0.1,1l-1.2,0.3l-1.2-0.7l-0.7,0.6l-1.4,0.5l-0.2,1.5l-2.7,1.3l-0.2-0.6l1-0.5l0.8-1.1l-1,0.3
			l-1.6-1.5l-0.2-1l-1.9-1l-0.8-0.7l0.3,0.8l-0.1,1.1l0.3,1.4l0.3,1.9l-1.2,0.6l-0.7,1.2l-0.7,0.6l-0.6-0.5l-0.4-0.4l-0.1,0.6
			l-1,1.3l-1.5,1.5l-1.7,0.8l-0.9,0.3L711,398l-1.5,0.4h-1.3l0.6,1l-1.7,0.9l-1.4,0.5l-1.3-0.5l-0.6,1.1l-1.5,0.2l-0.8,0.8L701,403
			l0.3-0.4l-0.7-0.1l-0.1-0.3l0.3-0.2h-0.4l-0.3-0.6L700,401l-0.5,0.6l-0.4,0.1l0.2,0.8l-0.3,1l-1.1,0.9l-0.3,0.6l0.6,1.4h0.9
			l0.8,1.5v0.4l0.6,0.1l0.4,0.7l-1.3,1.7h-0.9v-0.4l-1.7-0.3l-0.6,1l-0.3,0.3l-0.2-1.7l0.1-0.7l-1.1-0.7l-1.9-2.6v-0.9l1.1-1.4
			l0.3-1.3l1.1-0.1l-0.1-0.5l-0.8-0.3l-1.1,0.3l-1.1-1l-0.8,1.3l-1-0.1l-0.8,0.3l-1.9-1.6l-0.8,0.3l-1.4-1.5l-0.8-1.4l-0.3,1.5
			l0.1,0.8l-1.2,0.5l-0.9-0.4l-0.6,0.3l-0.5-0.1v0.1l-0.4-0.2h-0.9l-7.5,0.7l-16.3-6.4L629.5,408l-19.6-6.2l-45-33.4l-96.2-8.9
			l-50.8-47.6L320.4,270l8-82.4l64.1-34.7l74-15.5L472.7,136.3L472.7,136.3z M747.8,382.8l0.2,0.7l1.4,0.1l0.5-0.4l-0.9-0.9
			L747.8,382.8L747.8,382.8z M764.3,362.8l0.3,1.7l0.8-0.3l0.1-1.1l-0.6-0.6L764.3,362.8L764.3,362.8z M776.2,318.4l0.4,1.1l1.5,0.5
			l1.1,0.8v-1.3l-1.5-0.9l-0.9,0.1L776.2,318.4L776.2,318.4z M767.8,303.3l-0.2,0.6l0.9,0.9h1.6l1.6,0.7l-0.2-1.6l-1.3,0.1l-0.7-0.4
			L767.8,303.3L767.8,303.3z M777.2,396.5l1.1-0.4l1.1,0.4l-0.3-1.6l0.4-1.8l-0.8-2.3l1.3-1.7l1.9-2.9l0.1-1.9l0.6-0.6l-0.7-0.3
			l0.4-2.9l0.2-2.1l-0.3-2.2l0.8-1.6l0.4-4l0.5-2.1l0.6-0.1l-0.3-1.3l-1.3-1h-0.5l-0.8-1.7l-1.7-0.6l-1,0.6l0.2,1.1l-1.4,0.5
			l-1.7,1.9l-1.6,2.7l0.4,0.7l-0.3,1.1l-0.7,0.6l-1.7,2.9l-0.8,3.1l-0.6,0.4l0.5,0.7l0.1,3l0.2,3.1l0.8,0.5l0.2,0.9l-0.3,0.1
			l-0.1,0.9l0.8,1.3l0.8,0.2l0.2,1l2.2,0.7l1.1,1.7l-0.1,1.8L777.2,396.5L777.2,396.5z M699.5,404.9l0.7,0.8l1.1-0.1l1.5,0.3v-0.6
			l-1.4-0.6L699.5,404.9L699.5,404.9z M699.7,412.7l-1.6,0.3l-0.8-0.2l-1.1,0.7h-1.4l-1.5,0.8l-1.4,0.2l-0.3,1.4l-2.3,1.4l-2,2.1
			l0.7,1.2l0.1,2.9l0.9,1.5l-0.1,0.9l1.4,1.2h1.6l1.1,0.8l1.1-0.1l1.4,0.9l0.9-0.5l0.4-1.4l1.2-0.2l1.3,0.3l0.9-1.2l0.1-0.9l1.4-0.3
			l1.1-1.2l-0.3-1.3l0.8-2.4l0.8-0.6l0.3-1.1l1.2-1.9l-0.7-2l-1.6-1.1l-1.7-0.6l-1.1,0.8C700.6,413.4,699.7,412.8,699.7,412.7z"/>
		<path class="st1" d="M811,270l0.7-0.5l0.8,0.8l-1.1,0.5L811,270L811,270z M800.1,275.6l-0.7-1.1l0.3-0.5h0.5l0.5-0.9l0.4,0.8
			l0.1,1.3h-0.6L800.1,275.6L800.1,275.6z M817.6,267.5l-1.1,0.9l0.1,0.9l0.4,1l0.8-0.3l0.5-0.8l-0.1-1.3L817.6,267.5L817.6,267.5z
			 M822.8,277.5l-0.2-0.9l0.7-1l1.2,0.1l-0.4,1l-0.7,0.6L822.8,277.5L822.8,277.5z M824.1,274.4l-0.6,0.5l-0.4-1.1v-1.3l0.4-0.9
			l0.7-0.5l0.3,0.6l0.3,1.1L824.1,274.4L824.1,274.4z M802.1,285.8l-0.6-1.2l0.9-1.1l3.3-1l1.5,0.3l0.1,1l-1,1.8l-2.7,0.5
			L802.1,285.8L802.1,285.8z M789.7,239.6l0.2,0.2l1.3-0.9l2.3,0.1l-1.1,0.6l3,2.6l2,2.9l1,0.2l-0.5,0.8l1.1,1.6l0.6,1.3l-2.6-0.9
			l-0.5-0.8l-0.5,1.3l-1.1-0.3l-1.6,2.2l3.4,1.6l0.9-0.3l0.8,1.7l0.1,3.2l0.9,0.6l0.6-0.5l1.3,2.6l-2.5,1.7l-0.1,0.9l1,0.8l0.1,1.3
			l-0.9,0.5v1.5l0.8,1.5l-1,0.1l1.9,3.6l1.1,0.1l0.3,1.7l0.6,0.5l-0.1,1.3l1.1-0.8l0.1-2l0.7,0.9l1.1-1.6l3.4-3l1.4-0.3l0.2,0.8
			l1-1.3l0.8,0.1l0.8,1.5l1.5-0.6l0.6,0.7l0.8-0.5l-0.6-1.1l1.9-1.2h1.7l2.1-2.7l-0.5-0.8l1-0.8l-0.4-5.9h-0.5l-0.5,0.6l-0.1-1.8
			l-1-5.4l-1.2-1.2l-0.1-3.4l-4.5-5.7l-4.1-4.3l-2.8-5.2l-3.1,2l-5.3,0.4l-2.8,2.4l-2.7,0.7l-2.3,2.3L789.7,239.6z"/>
		<polygon class="st1" points="774,218.2 774,213.7 776,212.1 776.9,210.1 776.9,208.7 778.9,207.4 780.2,204.8 781.7,204.2 
			782.9,200.4 783.6,199.1 783.5,198.3 783.6,195.7 785,193.9 786.5,196.2 787.7,196.8 788.8,197.8 790.2,197.3 791.8,197.9 
			794.9,197.6 796.9,197.9 797.9,195.8 797.8,194.7 796.2,193.1 794.5,191.8 795.8,191 797.6,190.8 800.6,188.4 800.6,186.7 
			801.8,185 803.4,184.8 803.9,183.4 803.4,182.3 803.5,180.7 803.5,179 804.5,178.6 805.8,179.7 805.8,181.3 806.5,182 809,182.6 
			810.7,185 810.4,185 807.9,187.8 806.9,187.6 806.9,189.5 805.8,193.3 805.9,195.6 807.5,196.8 807.6,200.8 808.8,201.7 
			808.2,203.5 806.2,205.2 806.6,205.8 802.7,209.8 803.2,211 802.1,212 801.7,212.8 800.2,212.8 798.7,213.8 798,215.4 796,216.7 
			796,218.7 796.6,220.4 795.8,221.2 796.3,223.3 799.1,223.8 799.9,225.1 805.5,228.3 806.5,230 803.4,232 798.1,232.4 
			795.3,234.9 792.6,235.6 790.3,237.9 789.7,239.6 788,237.8 787.1,238.4 787.5,239.2 786.1,241 785.2,240.3 783.6,241.6 
			783,240.6 784.4,238.4 782.7,237.8 781.4,238.5 780.7,238.4 781.1,237 781.2,233.8 782.3,231.6 784.3,231.4 785.9,229.9 
			784.4,230.7 781.5,230.6 781,230 780.9,226.3 782.7,223.3 781.7,221.8 782.8,221.1 783.2,219.8 782.2,219.9 781.4,220.9 
			778.9,221.3 778.2,220.3 776.5,219.4 776.4,220.5 775.3,221.3 774.6,218.5 774.2,218.7 		"/>
		<polygon class="st1" points="477.1,136.8 478.3,133.9 479.7,133.2 483.2,133.4 483.7,132.6 485.1,131.1 487.5,130.3 487.6,128.7 
			488.2,127.1 490.2,126.2 490.2,125.1 491.5,123.9 492.8,123.6 493.9,122.1 494.5,121.5 493.7,120.9 493.6,119.8 494.1,119.1 
			496.7,119.8 497.7,119.3 498.5,117.3 499.7,116.8 502.5,116.4 504,116 505.2,116 507,116.1 508.2,115.4 508.6,115.4 509.5,116.7 
			509.7,117.6 510.6,118.5 512.2,118.4 513,118.1 514.4,118.3 515.6,117.5 518,117.3 518.5,118.5 518.8,119.8 519.2,120.8 523,123 
			524.5,124.1 527.2,125.4 528.2,124.9 529.8,124.3 531.5,123.1 532.8,122.9 534.2,123.3 535.4,124.1 536.6,123.8 540,123.8 
			541.2,124.4 542.7,124.3 543,123.9 544.5,124.1 547.1,123.8 548.5,121.5 547.7,120.5 546.1,119.5 546.2,117.1 546.6,114.6 
			546.4,113.6 544.9,113.1 544.1,112.1 541.9,111.5 541.3,109.6 541.4,105.9 542.9,104.1 542.9,102.9 543.7,101.6 545,101.2 
			545.7,101.5 546.3,100.2 545.8,98.9 546.1,97.7 547,96.8 548.5,96.9 549.6,97.6 551.6,98.2 553.7,99.1 553.9,99.7 555.7,100.3 
			557.6,100.4 560.4,100.4 561.5,101.1 562.2,101.7 564.2,101.9 565.3,102.5 566.6,102.7 569.9,102.6 571.1,103.1 571.6,104.3 
			571.6,105.3 572.4,106.4 572.4,107.5 573.1,108.3 573.9,110 573.8,111.4 574.8,112.2 575.7,112.3 577.3,113.6 577.7,114.5 
			580,115.1 582.4,116.4 583.5,116.4 584,115.9 586.4,116 587.4,115.3 588.6,115.3 589.5,115.7 590.5,115.4 591.8,113.9 594,113.2 
			597.1,113 598.7,112 600.7,112 602.6,111.4 604.3,112.4 606.6,112.6 609.6,112.5 611.2,114.8 613.9,115.8 616.1,115.8 
			617.7,115.4 618.5,116.1 619.3,118.5 620.9,119.6 621.8,120.1 622.8,120.4 624.2,121.8 625.3,121.9 628.8,121.5 631.9,122.4 
			636.5,122.4 638.5,122.1 639.2,121.5 641,121.5 642.4,122.3 643.3,122.1 644.5,120.2 647.4,118.6 649.2,118.6 650.4,117.2 
			651.7,117 655.2,117.1 656.7,115.7 657.2,114.2 657.2,113.5 658.2,112 659.8,111.3 660.9,110.1 661.5,108.5 662.7,107.4 
			664,107.4 664.5,107.8 666.8,107.2 668.2,107.4 670.1,108.5 671,109.9 672.1,110.3 673.6,109.5 674.3,110.1 675.7,110.1 
			677.5,109.1 677.5,108.3 680.1,107.9 683,108.8 683.8,109.6 682.1,121.6 682.4,124.2 681.8,126.4 682,128 681,131.3 682.2,133.7 
			685.9,135.5 688.3,133.6 691.5,133.6 694.8,134.2 696.3,135.7 698.2,132.9 698,131.2 698.1,129.7 700.2,129.1 701,128.4 
			704.5,129.3 706.5,131.7 709.3,134.3 711.5,137.1 714.3,139.1 714.4,140.5 715,141.5 714.9,142.9 714.3,143.7 714.3,144.8 
			713.7,145.8 712.5,145.5 711.8,144.8 710.2,145 709.3,145.6 707.1,144.6 705.8,144.9 704.4,146.9 702.3,148.5 701.1,149.3 
			699.7,148.3 699.1,148.5 699,149.9 698.5,150.7 697.4,150.9 696.6,150.7 696,151.7 694.6,153.7 694.3,156.1 694.4,157.7 
			693.6,158.7 692,159.1 688.5,161.4 686.7,161.4 684.8,161 683.9,161.7 682.5,164.7 681,165.8 679.3,167.1 678.2,168.2 
			677.8,169.4 677,169.6 675.4,168.8 673.5,168.4 671.2,167.6 669.3,166.2 667.4,166.2 664.4,166.8 662.6,168.1 661.5,169.7 
			661.4,173.1 661.6,174.8 661.5,175.9 664.9,178.1 668.1,180.1 668.1,181 667.3,182.5 666.3,184 662.9,187.7 660.9,191 
			659.8,193.6 658.5,193.6 656.1,194.4 654.2,194.5 652.2,195.9 650.1,197.4 647.9,197.5 644.7,197.9 642.6,198.6 640.1,199.3 
			634.6,201.2 630.2,202.7 628.1,205.1 624.7,207.8 623.3,209 621.5,209 619.2,208.4 619.2,207.5 619,206.4 615.7,207.3 613,207.7 
			610.2,206.2 608,206 603.1,204.2 598.3,202 595.7,199.5 593.7,199.4 588.1,198.8 583.5,198.9 582.3,198.6 581.4,199.2 581,200 
			578.4,201 574.8,201.3 568.4,200.8 563.7,201.1 560.1,200.9 557.1,201.2 555.5,201.4 554.2,200.9 552.5,197.6 551.8,195.9 
			550.2,193.5 548.8,191.9 548,189.7 547.8,188.7 546.7,187.5 545.6,187.1 544.8,187 544.5,186.1 544.3,184.8 543.8,184.5 
			543.1,184.7 540.9,184.7 539,183.6 536.2,181.6 535.2,181.4 534.5,181.4 533.2,181.2 532.5,180.3 530.1,178.7 524.9,177.5 
			524.4,177.7 523.7,178.2 521.6,178.5 518.3,178.5 510.7,176.9 509,175.9 507.3,173.3 507,172.1 507,170.9 507.5,170.1 
			508.6,169.3 509.1,167.9 508.2,166.8 507.8,165 508.2,164.1 508.1,162.3 507.5,161.4 506.5,159.8 505.4,159.2 504.1,158.2 
			503.6,156.9 502.8,155.7 502.4,154.3 502.2,153.2 501.3,151.9 500.1,150.9 499,150.6 498.4,149.6 497.1,149.1 495.9,149.2 
			495.2,150 494.3,150.3 493.5,150 492.3,148.7 491.9,148 490.5,148 488.9,148.7 488.4,149.4 488.1,150.3 487.4,150.3 485.8,149.3 
			485.4,148.2 485.4,147.7 484.3,146.3 482.8,145.3 481.6,144 480.7,143.7 479.9,142.9 479.6,141.9 479.5,140.9 479.1,140.1 
			478.8,140.3 478.7,140.7 478.2,140.8 477.6,139.8 477.2,139.4 477.3,137.7 		"/>
		<polygon class="st1" points="203.5,179.7 201.5,178.4 199.5,179.1 196.7,177.2 196.9,175.9 199.8,175.9 196.7,170.7 193.1,167.4 
			188.1,166 187.5,167.1 185,165 185.5,163.9 184.2,161.7 181,160.5 182.2,157.8 182.9,153 181.7,151.9 181.3,148.1 182.8,147.4 
			184.9,144.8 184.9,142.9 186,141.4 190.1,145.1 190.6,146.5 192.9,148 195.3,147.7 195,145.4 196,144.6 194.2,138.5 196.6,138.2 
			199.1,138.2 199.1,136.4 198,135 198.5,133.2 200.8,131.7 201.8,131.7 202.5,129.6 203.7,128.8 205.3,129.2 205.5,127.8 
			205.1,126.4 205.5,125.4 207.8,126.8 209.6,127.5 209.4,128.5 208.4,129.8 209.1,130.6 210.6,129.8 211,128.6 212,127.9 
			212.1,129.3 213.1,128.2 213.3,127.3 214.8,127.1 216.4,126 217.8,125.9 218.6,128 220.4,129.1 223.1,128.3 224.4,128.3 
			225.2,129.5 226.1,129.5 227.6,131.5 229.3,131.5 230.5,133.1 232.7,134.7 233.9,134.9 234.5,135.9 234.6,137.7 235.5,138 
			236.5,136.5 236.4,134.5 237.9,133.6 238.9,135.1 241.9,135.6 242.8,137 244,137.5 245.9,136.1 246,133.2 247.6,133 247.8,131.6 
			249,131.2 249.9,132.4 250.5,131.1 252.3,130.8 254.5,132.9 255,133.7 257.1,133.5 256.9,131.6 258.1,131.2 259.8,131.4 
			260.6,130.3 262.5,131.3 263.6,131.9 263.1,132.9 261.9,133.5 263.4,135.3 264.8,135.7 265.5,135.3 266.5,135.9 268.9,135.8 
			271.6,137.3 273.3,137 274.1,135.4 274.2,133.9 275,133.1 277.4,134.6 279.5,134.8 282.1,133.9 282.9,132.6 282.5,126.6 
			281.8,126 279.5,126 278,124.8 277.8,124 276,123.6 275,122.6 273.1,122.6 273,121.6 272.5,120.6 272.8,119.9 274.1,119.7 
			274.4,118.1 275.6,116.7 275.2,114.9 274,114.8 273.9,113.1 275.6,110.6 277.4,109 280.6,108.6 281.9,109.1 282.8,108.5 
			282.9,106.9 281.4,106.5 280.1,105.3 278.9,105.3 278,106 276.4,105.4 274.5,105.3 274.3,104.3 275,103.7 277,103.6 276.4,102 
			274.5,102.3 273.1,101.9 273.8,101.1 273,99.3 273.5,98.8 275.2,98.6 276,97.7 277.1,97.8 277.6,98.6 279.4,98.4 280.7,99.4 
			281.4,98.6 281.4,97.6 282.7,96.8 284.1,96.9 285,98.3 285.7,97.3 285.9,96.1 288.5,95.3 290.3,95.1 292.2,94.2 294.3,94 
			294.7,93.4 296.8,92.1 298.6,92 299.9,91.2 301,91.1 302,91.5 302.6,91 302.6,89.4 303.5,88.6 305.1,88.6 305.4,87.6 306.4,86.8 
			307.2,87.5 308.3,87.8 309.7,86.9 311.5,86.4 314.7,84.1 315.5,84.1 316.2,83.6 318,83.3 319.1,81.9 320.1,82.2 322.1,81.8 
			322.1,80.6 321.4,79.5 322.2,79 324.2,78.9 324.7,77.4 326.1,76.6 327,76.8 328.2,76.4 330.1,77.2 332.2,77 334,78.2 335.9,78.2 
			337.6,77.5 339.2,77.6 339.8,79.5 340.4,80 341,81.6 342,82.9 343.1,83.5 343.2,84.3 342.8,85.7 343.1,87.1 343.1,87.7 341.9,88 
			342.6,89.5 343.5,90.2 345.2,89.1 346.4,90.1 347.2,89.8 347.5,88.3 348.5,87.9 349,89.5 349.9,89.5 350.1,88.3 349.5,86.7 
			350,86.4 352.7,88.3 353,90.8 354,92.7 354.9,92.6 356,91.4 355.2,91 354.7,90.2 356.4,89.8 359.3,91.2 360.3,91.2 361.5,90.2 
			362.3,90.7 361.7,92.2 360.8,93.1 360.7,95.1 361.8,96.4 362.8,96.3 363.7,95.3 365.5,94.8 368.6,95.5 369.3,96 370.2,95.4 
			369.9,93.6 371.4,93.1 373.6,92.8 375.1,91.8 375.7,90.5 376.9,89.5 377,88.4 378.7,86.7 380,86.3 381.2,85 382.8,84.6 384.8,84 
			385.7,84.5 385.6,85.9 384.3,87.3 383.1,87.6 383.7,88.7 397.6,99.1 416.5,122.8 418.4,122.5 419.6,121.7 420,120.8 419.6,120.5 
			419.5,118.8 420.7,118.2 423,119.2 422.7,120.3 422.9,121.3 424.6,121.8 425.7,123 427.1,123 428.2,122.3 429.4,122.1 
			431.4,123.2 433.1,122.4 434.4,122.7 435.9,122.1 436.3,121.4 435.8,120.6 436,119.8 438.6,119.4 441.3,119.4 443.7,120 
			446,121.7 447.2,123.9 448,125.7 448.8,125.8 450.4,126.2 452.2,127.4 452.7,127.4 453.9,127.9 454,128.8 453.7,129.5 
			453.7,130.8 454.1,131.8 454.9,132.5 455.2,132.9 455.9,132.9 457.4,133.5 458.6,134.1 459,133.4 460.3,132.7 463.9,132.5 
			465.6,132 466.4,130.6 467.9,129.8 468.7,130.2 468,132.1 468.5,133.4 469.6,133.6 471.3,135.1 473.6,135.9 474.1,136.6 
			472.7,138.1 471.5,138.7 469.5,140.9 469.4,142.1 469.9,143 468.9,144.6 466.6,145.5 465.2,146.5 465,148.3 465.1,151.5 
			466.6,154.6 468,156.5 467.8,157.6 465.9,159.8 464.2,160.4 462.9,161.9 461.7,162.3 461,162 460.6,161.1 459.3,161.1 
			456.3,161.8 454.2,161.6 451.2,160.6 449.5,160.4 448.6,160.5 447.9,164 447.2,166.2 447.1,167.9 446.4,172.4 446.4,175.8 
			446,177 446.9,177.6 448.7,178.4 448,180 447.8,181.2 446.8,181.2 445.9,181.7 444.7,181.7 443.8,181 442.8,181.4 441,181.9 
			437.6,182.6 435.2,183.5 434.1,183.5 433.1,183 431.9,183.5 430.5,184.8 430.4,185.9 431.8,186.9 433.9,186.8 435.7,187 
			435.7,187.7 434.6,188.8 435.4,191.1 435.5,192.2 436.1,193.2 436.4,194.9 437.9,197.2 438.1,198.5 439.8,199.7 440.4,202.9 
			439.5,203.7 439,205.1 440.3,206.6 439.6,207 439.4,207.8 437.9,208.8 438,210.9 436.5,211.7 433.1,210.8 429.8,207 428.4,207.4 
			425.2,206.1 420.5,205.8 418.1,206.6 414.2,205.6 410.5,206.5 408.6,206.7 406.9,206.2 405.5,207.4 404,208 399.8,207.5 
			396.7,206.6 395.1,205.7 392.6,205.7 391.8,206.1 390,206 388.5,205.7 387.6,206.2 387.8,207.9 388.2,209.6 388.3,211.7 
			385.9,212.1 381.1,212.2 375.4,211.6 374.1,210.9 371.6,210.5 370.1,212.1 370.7,213 369,214.1 368.7,214.8 368.2,214.7 
			366.7,216.7 365.4,217.2 362.4,220.9 361.3,223 360.4,224 358.9,226.9 355.7,229.8 355,229.2 351.5,227.5 348.9,227.1 
			346.6,227.6 343.1,229.4 341.5,229.3 338.3,220.4 332.9,219.7 332.6,208.8 329.9,209.6 328,205 324,202 311.4,202.1 299.9,203.3 
			293.4,199.4 288.7,197.6 276.4,189 256.1,192.8 262.3,229.6 261.2,229.7 258.1,230.3 253.1,224.5 247.6,221.4 242.6,220.6 
			238.8,222 234.1,226.3 233.9,224.3 233.5,222.4 234.4,220.3 234.6,218.2 234.6,217.4 234.8,216.8 234.3,216.5 232.6,216.6 
			231.4,216 230,215.7 228.8,216.2 228.2,215.9 227.6,214.6 226.9,214.1 226.2,212.8 225.5,212.4 225,212.7 223.6,213 222.9,213 
			223.1,211.1 222.9,209.6 220.8,207.1 220.4,206.1 219.8,205.9 219.2,204.3 218.3,203.7 217.8,202.5 216.4,202 215.2,202 
			214.3,200.8 214.4,200.1 215,199.3 215.8,199.6 218.1,199.4 218.7,199.8 219.6,199.7 220.2,200 221.1,199.4 221.8,199 
			223.1,199.5 223.5,199.2 223.1,198.4 221.6,198.5 221.1,198.2 221.1,197.1 219.6,195.3 219.5,194.5 220.2,194.1 220.2,192.8 
			220,192.1 220.9,191.2 222.6,190.7 224,190.2 225.1,190.8 226.6,190.4 227.9,190.2 228.6,190.8 229.2,190.4 230.3,190.4 
			231.6,191.7 232.8,191.7 234.4,190.9 234.6,190.2 233.5,189.8 232.1,189.5 231.1,187.5 231.3,185.7 232.3,185.3 232.9,184.6 
			232.4,184.1 231.9,183.4 231.7,182.7 232.5,181.1 232.7,180 231.5,178.8 231.1,177.9 231.8,176.9 231.7,176.5 230.7,176.3 
			230.1,175.2 229.9,174.6 227.2,174.4 226.2,174.2 225.2,174.5 225,175 224.2,175.5 224.2,176.2 223.4,176.6 222.3,176.2 
			222.2,175.6 221.3,175.6 220.8,176.1 220.1,175.3 220.1,174.1 219.8,173.7 219.2,174.2 218.2,174.2 217.5,173.7 215.5,173.7 
			214.4,174.8 214.1,175.9 213.6,176.2 213.1,175.7 212.4,175.7 211.5,176.9 210.7,176.8 210,177.8 208.7,178.9 208,178.8 
			207.7,179.7 207.2,180.3 206.6,179.7 206,179.6 205.5,180.4 204.4,180.4 204,179.6 		"/>
		<polygon class="st1" points="354.3,266.2 354.9,261.3 356.5,257.5 357.2,256.6 357,254.5 355.4,253.9 354.6,251.7 355.3,250.1 
			354.9,248.4 352.7,248.5 351.4,249.2 349.4,246.3 349.4,243.9 350.9,242.7 354.4,243.2 355.7,242.8 356,241 359,240 358.5,238.7 
			357.8,238.1 361.1,237.4 363.7,236.2 363.8,234.7 361.4,233.5 361.5,231.7 363.5,231 365.5,229.5 367.1,229.6 369.5,227.1 
			371.2,228.8 371.8,229.9 375.6,229.3 378.2,229.5 380.4,227 380,225.5 376.2,222.5 375.2,222.3 375,224.5 373.7,225.9 
			372.3,225.4 370.9,224.1 367.5,223.1 366,222.2 367.2,220.2 369.6,216.5 369.5,214.9 368.2,214.7 366.7,216.7 365.4,217.2 
			362.4,220.9 361.3,223 360.4,224 358.9,226.9 355.7,229.8 355,229.2 351.5,227.5 348.9,227.1 346.6,227.6 343.1,229.4 
			341.5,229.3 338.3,220.4 332.9,219.7 332.6,208.8 329.9,209.6 328,205 324,202 311.4,202.1 299.9,203.3 293.4,199.4 288.7,197.6 
			276.4,189 256.1,192.8 262.3,229.6 265.8,229.2 269.1,229.8 269.9,228 268.5,226.7 268,223.9 269.6,220.5 272,220.3 273.2,218.4 
			275,217.4 276.9,218.4 277.8,217.9 276.4,216 280,216.3 285.2,218.9 289.7,221.5 290.2,223.3 296,226.4 300.6,228.8 301.8,228 
			303.3,228.2 306.6,230.5 307.9,235.1 309.5,236.2 310,238.2 311.8,241.5 314.5,242.7 319.6,245.9 324.7,249.7 330.5,252.2 
			335.7,255.8 339.8,256.5 340.7,257.5 342,257.3 344.9,259.3 344.7,261.3 345.2,264.7 347.4,264.1 349,264.9 350,266.3 351,266.4 
			352.3,265.2 353.6,265.3 		"/>
		<polygon class="st1" points="345.2,264.7 344.7,261.3 344.9,259.3 342,257.3 340.7,257.5 339.8,256.5 335.7,255.8 330.5,252.2 
			324.7,249.7 319.6,245.9 314.5,242.7 311.8,241.5 310,238.2 309.5,236.2 307.9,235.1 306.6,230.5 303.3,228.2 301.8,228 
			300.6,228.8 296,226.4 290.2,223.3 289.7,221.5 285.2,218.9 280,216.3 276.4,216 277.8,217.9 276.9,218.4 275,217.4 273.2,218.4 
			272,220.3 269.6,220.5 268,223.9 268.5,226.7 269.9,228 269.1,229.8 265.8,229.2 261.2,229.7 258.1,230.3 253.1,224.5 
			247.6,221.4 242.6,220.6 238.8,222 234.1,226.3 234.1,226.9 235.3,228.1 235.8,229.2 237.1,230.2 237.5,231.5 239.2,234.1 
			238.8,236.4 237.9,238 238.2,241.9 239.1,243.1 239.5,244.2 242.2,246.7 242,245.7 241.2,244.8 241.6,244.3 243.9,244.7 245,244 
			245.6,244.5 245.2,246.1 245.6,247.7 246.6,247.3 247.6,248.6 247.1,249.2 245.8,248.8 245,249.1 244.3,248.5 242.8,249.6 
			243,251 243.8,252.3 243.6,250.5 244.5,250.3 245.2,250.8 246.3,251 247.2,252.4 249.2,253.5 249.7,255 249.7,257.2 249.9,258.5 
			249.8,262.4 250.5,265.1 251.9,268.9 253.5,268 257.3,267.8 258,265.7 259,264.5 260.3,264.4 263.5,261.6 266.8,261 269.6,261.6 
			270.2,259.8 271.8,259.4 273.3,260 275,260 277.8,262.2 280.1,262.9 284.6,265.7 285.9,265.6 287.1,264.8 290.2,266.1 
			291.8,266.4 292.2,268.6 293,269.2 294.6,268.8 297.5,269.5 300.6,273.8 304,274.1 305.9,274.9 307.1,277.1 306.6,278.2 
			307.2,280.1 307.2,281.3 307.8,282.5 308.6,282.2 310.3,282.7 311.5,283.6 312.8,283.6 313.8,282.7 315.1,282.7 316.9,284 
			317.3,285.1 318,285.7 318.7,284.9 321,284.5 322.1,283.2 322.3,282.2 323.3,281.4 322.9,280.3 325.3,279 328.3,278.4 
			328.6,277.6 329.7,276.7 331,276.4 331.5,274.4 331.5,272.4 333.3,270.5 333.3,268.9 332.6,268.4 332.7,267.4 333.5,267.1 
			334.3,266.4 336.3,265.9 337,265.9 339.3,264.2 341.1,263.7 342.6,264.6 344.3,264.2 344.9,264.8 		"/>
		<path class="st1" d="M635.2,393.8l0.5-0.5l0.6-0.1l0.4-0.8l0.8-0.7l1.6-0.7l1,0.1l-0.1,1.2l0.7,0.5h1.1l0.3-1.5l1.2-0.8l1.6,1.5
			l0.8-1.1l0.9,0.1l0.4,1.1l1.7-0.8l0.3-1.1l1.9-0.6l1.5,0.9l2.6-0.9l-0.1-2.4l1.7-0.9h1.9l1.1-1.1l1.7,1.3v1l1.7,0.3l0.7,1l3.5-0.1
			l0.6,0.8l2.1-0.8l1.3,1.1l-0.3,1.5l-1.1,0.2l-0.8,2.8l0.9,0.3l0.4,1.6l3.1,1.1l0.4,1.1l1.5,0.7l1.5,0.8l1.6-0.5l0.7,0.5l0.9-0.3
			l1.4,0.7h-0.1l0.3,0.6l-0.5,0.9l-0.8,0.3h-0.6l-1.3,0.8l-1.3-0.1l-1.4,0.3L675,404l0.3,1.1l-0.8,0.5l-0.3,0.5l-0.7-0.4l-1.2,0.3
			l-0.7,0.7l-0.5,0.2l-0.5-0.7l-0.5-0.2l-0.1,1.1l-0.6,0.8l0.4,0.5l-0.2,1.2l0.1,1.2l-0.2,0.3l0.4,0.9l-0.4,0.7l-0.6,0.2l-1.1,1.8
			h-1l-0.4-0.5l-0.1,0.6l-0.7,0.5l-0.4,1.3l-0.6,0.5l-0.1,1.4l0.6,0.1l0.6,0.8L665,422l-0.9,1.3l1.6,1.4l-0.2,0.8l-1.3,0.3l1.3,0.4
			l2.3,1.3l2,2l0.8-0.1l1,1.8v0.9l-0.3,0.5l0.6,1.7l0.3,0.9l3,2.4l1.7,1l0.2,0.5l4.1,2.3l3.7,2.7l0.8,1.5l3.4,2.6l1.1,2l0.2,1.2h0.5
			l-0.1,1.1l1.8,1.8v0.8l0.4,0.6l-0.4,0.6l1.3,1.6l0.4,2.8l0.6,0.5l0.6,2.5l0.5,0.5l0.1,1.4l-0.3,0.9l0.5,1.3l-0.3,0.6l0.6,2
			l0.1,0.7l0.7,0.3l0.3,1.1l0.9,1.8l-0.2,1.2h-0.3v-0.6l-0.5-0.6l-0.6,0.4l0.1,1.2l0.7,0.8l-0.1,0.7l-0.8,0.6l-0.1,0.9l-1.2,0.9
			l1.1,1.6l-0.6,1.4l0.5,0.6l-1,1l-0.8,0.3l-0.2,1.9l-0.8,0.3l-1.7,1.8l-1.1,0.6l-1.5,1.1l-0.2,1.3h-1.4l-0.9,1l-3.3,1.9l-2,0.2
			l-0.9-0.4l-1.5,0.4l-0.3-0.3l0.2-1l-0.1-0.9l-0.3,0.9l-0.2,0.4l-1.3-0.3l0.9,0.7v0.6l-0.4,0.3l-1.3-0.2l2.1,1l-0.5,0.7l0.6,1.2
			l-1.1,0.6l-1.7-1.2l1.4,1.5l-0.1,0.8l-0.6,0.8l-0.7-0.2l-0.6-0.9l-0.9,0.1l0.4,1.1l-0.1,0.4l0.3,0.4l-0.6,0.4l-0.4,0.6l-0.8,0.1
			l-1.5,1.3L671,504l-1-0.1l-0.3,0.8l-0.2,1.6l-1,0.9h-0.4l0.1,0.3l-3.4,1.5l-1.8-0.3l1.2-0.7l1.4-0.6l0.8-0.9l-0.8,0.3l-1.1-0.6
			l0.2-2.4l0.2-0.2l-0.5-0.1l0.3-1l-0.1-2.4l1.1-1.9l2.2-1.7l0.7-0.8l-1.1,0.5l-1.6-0.2l-1.2,0.4l-0.7-0.5l-0.7,0.3l-1.5-0.4
			l0.2-0.4l-0.1-1.3l-0.4-0.3l1.4-1.8l1.7-0.3l0.9-2.2l1.6-0.1l0.8,0.6l3.6-0.9l1.5,0.9l0.4,1.1l2.4-0.2l-0.7-1.6l0.3-1.1l-1.4-1.4
			l-1.7-0.5l-0.3-2.7l1.6-1.1l2.8,0.1l0.8-1.5l2.2-1.4l2.1-0.6l0.3-1l1.2-0.5l1.1-2.3l-0.3-1.8l0.5-2.1l-0.6-1.5l0.3-2.4l-1.3-3.1
			l-1.4-0.7l-0.9-2.4h0.2l1.4-0.9l-0.2-2.3l-0.6-1.1l-0.3-2l2.2-1.7v-1.8l-1.2-0.2l-0.6-0.9l0.2-2.1l1.1-1.1l-0.5-1.2l-1.5,0.6
			l-0.8-0.2l-0.9-1.3l-1.7-0.1l-0.6-0.8l0.3-1.3l-1.2-0.5L675,443l-1-1.1l-0.2-1.3l-0.8-1.4h-1.9l-1-0.5l-0.7-1.8l-2.4-2.7l0.1-1.2
			l-1.6-2.2l-2.2-1l-1.9-2.7l-1.6-0.2l-2.3-1.2l-2.4-0.2l-1.1-2h-1.2l-0.3-1l1.1-1.2l-1.6-1.8l-0.2-1.3l1.2-0.1l2.2-0.8l1.5-0.2
			l0.8-0.8l0.9-3l1.1-0.4v-1.1l-2.2-0.5v-1.4l-0.3-1.6l-2-0.4l-1.1-1.4h-2.2l-1.7,1.1l-1.9-0.6l-3.2-0.1l-1.6-2.6l-2.7-2.5l0.6-1.3
			L641,399l-1.4-1.2l-1.3-1.9l-2.7-1.1L635.2,393.8L635.2,393.8z M656.5,494.6l0.9,1l-0.3,0.8l0.6,1.3l0.9-0.4l0.3-2.3l-0.5-0.2
			l-0.4-1.1L656.5,494.6z"/>
		<polygon class="st1" points="661.4,493.9 662.8,492.2 664.5,491.9 665.3,489.7 666.9,489.6 667.7,490.2 671.3,489.3 672.8,490.2 
			673.2,491.2 675.7,491.1 675,489.5 675.2,488.4 673.8,487 672.1,486.5 671.8,483.7 673.3,482.6 676.2,482.7 677,481.2 
			679.2,479.8 681.3,479.2 681.6,478.2 682.8,477.7 684,475.4 683.7,473.6 684.2,471.6 683.6,470.1 684,467.7 682.6,464.6 
			681.2,463.8 680.3,461.5 679.2,461.5 677.6,460.5 676.5,460.2 675.8,459 673.2,459.5 671.8,460.8 673.5,462.5 673.2,463.9 
			673.7,465.3 673.6,466.4 671.2,465.5 669.8,463.2 667.6,463.2 666.9,462.1 665.1,460.8 664.1,461.3 662.8,460.2 660.6,460.5 
			659,460.1 657.3,460.1 655.1,460.8 654.5,460.2 652.2,460.1 648.6,461.3 647.1,461.3 645.5,463.6 645,465.8 643.7,467.6 
			643.6,470.6 644.2,473.6 645.6,474.3 646.3,475.8 646.1,478.7 645.9,479.9 645.9,479.9 647,481.1 647,482.5 648.1,483.5 
			648.1,484.9 649.2,486.5 649.8,486.2 650.4,487.4 650.3,488.6 650.8,489.5 651,490.6 652.2,490.8 653.1,490.6 653.2,489.3 
			654.1,488.5 654.7,488.1 654.7,489 655.3,490.2 655.2,491.2 654.2,492.3 654.7,493 654.9,493.6 655.7,493.7 657,492.5 
			657.1,492.1 657.9,492.7 659.5,493.2 660,492.9 		"/>
		<polygon class="st1" points="627.4,401.9 628.4,402.6 629.1,403.9 631.1,403.3 632.4,403.6 632,401.7 631.8,399.9 631.3,398.2 
			631.2,395.6 632.2,394.9 632.2,393.8 635.1,393.7 635.7,394.8 638.3,395.9 639.6,397.9 641,399 641.3,400.7 640.7,402 
			643.3,404.5 645,407.1 648.2,407.1 650.1,407.7 651.8,406.6 654,406.6 655.1,408 657.1,408.4 657.3,410 657.3,411.3 659.5,411.9 
			659.5,412.9 658.4,413.3 657.5,416.3 656.7,417.2 655.2,417.4 653,418.2 651.8,418.2 652,419.5 653.6,421.4 652.5,422.6 
			652.8,423.6 654.1,423.6 655.2,425.6 657.6,425.7 659.8,427 661.4,427.1 663.3,429.8 665.6,430.8 667.1,433 667,434.2 
			669.4,436.8 670.1,438.7 671.1,439.2 673,439.2 673.8,440.6 674,441.9 675,443 675.7,442.7 676.8,443.2 676.6,444.5 677.2,445.3 
			678.9,445.4 679.8,446.7 680.6,446.9 682.1,446.3 682.6,447.5 681.5,448.6 681.3,450.6 681.9,451.5 683.1,451.7 683.1,453.5 
			680.9,455.2 681.2,457.2 681.8,458.3 682,460.6 680.6,461.5 679.2,461.5 677.6,460.5 676.5,460.2 675.8,459 673.2,459.5 
			671.8,460.8 673.5,462.5 673.2,463.9 673.7,465.3 673.6,466.4 671.2,465.5 669.8,463.2 667.6,463.2 666.9,462.1 665.1,460.8 
			666,460.4 667,459.3 667.1,456.5 666.5,455.3 667.1,453.8 667,452.9 667.5,451.1 667.1,450.1 665.2,448.8 665.7,448 664.3,447.4 
			662.9,447.3 661.3,445.5 659.9,444.5 660.3,443.3 660.4,441.2 659.6,439.3 660.1,438.4 660.4,437.1 659.6,435.4 657.7,434 
			654.4,431.6 653.3,429.4 649.8,428.5 647.3,429.1 645.6,432.5 642.4,432.8 641.1,431.2 639.5,431.3 636.9,429.9 634.5,431.1 
			634.3,432.6 632.4,433.1 630.3,434.2 630.1,430.1 630.1,427.5 629.5,425.6 630.3,424.4 630.4,423.2 629.5,421.7 630.4,419.9 
			630.3,418.6 627.5,418.5 626.2,419.6 625,419.2 623.8,417.2 625.1,416.4 624.7,413.7 623.2,411.9 621.1,412.4 620.2,410.6 
			621.1,408.6 622,408.6 623.5,407.3 622.8,406.3 623.7,405.1 623.7,403.7 625.9,403.2 		"/>
		<path class="st1" d="M620.2,410.6l0.9,1.8l2.1-0.5l1.5,1.8l0.4,2.7l-1.2,0.9l1.1,1.9l1.2,0.4l1.3-1.1l2.8,0.1l0.1,1.3l-0.9,1.8
			l0.9,1.5l-0.1,1.2l-0.9,1.2l0.7,1.9v2.7l0.1,4l2.1-1.1l1.9-0.4l0.2-1.6l2.4-1.1l2.6,1.3l1.6-0.1l1.3,1.7l3.2-0.3l1.7-3.5l2.6-0.6
			l3.5,0.9l1.1,2.2l3.3,2.4l1.9,1.4l0.8,1.7l-0.3,1.3l-0.6,0.9l0.8,1.8l-0.1,2.2l-0.4,1.2l1.4,1l1.6,1.8l1.4,0.1l1.3,0.6l-0.5,0.8
			l1.9,1.3l0.3,1.1l-0.5,1.7l0.1,1l-0.6,1.4l0.6,1.2l-0.1,2.8l-1,1.1l-1.8,0.9l-1.3-1.1l-2.2,0.3l-1.7-0.4H657l-2.2,0.8l-0.7-0.7
			l-2.2-0.1l-3.6,1.2h-1.5l-1.6,2.3l-0.5,2.3l-1.3,1.7l-0.2,3l0.7,3.1l1.3,0.7l0.7,1.5l-0.2,2.8l-0.2,1.2l-0.7-0.1l-0.1,1.1
			l-0.3,0.1l-0.2-0.4l-1.6-1.3H642v-0.7l-1-0.5l-2-2l-1.1-0.4l-0.9,0.7l0.2,0.3l-0.1,0.3l-0.7-0.5l-1.7-0.4l-1.5,0.4l-1.1-0.4
			l-1.2,0.1l0.4-1.2l0.5-0.5l-0.7-1.2l0.1-2l0.4-0.5l-0.4-1l-1.3-0.3l-0.3-0.2l-0.5,0.1l-0.6-0.4l-1.2,0.6l-0.9,0.1l-0.6-0.5
			l-0.5,0.6h-0.9l-0.5-0.2v0.3l-0.3,1l1.3,0.6l0.2,1.4l-0.8,1.3l0.1,1.7l-0.3,0.9l0.6,0.5l-0.2,2.2L624,481l-0.2,1.6l-1.1,1.6
			l-0.4,5.9l-1.8,2.4v1.6l-0.7,1.5l0.8,0.1l0.2,0.4l-0.7,0.9l0.1,0.7l0.4,1.6v1l1.5,2.2l-0.8,1.5l0.5,0.6l0.8-0.2l0.2-0.6l0.8-0.8
			l0.4,0.3l1.2,0.2l0.7,0.6l0.2,1.6l0.7,0.9l-0.1,1.7l0.8,0.3l0.8,1.7h0.8v-0.8l0.1-0.6l0.4,1.2l0.9,1.3v1.3l0.7,0.4l0.6,3.2
			l-0.3,0.4l-0.3,0.6l-0.4-0.5l-1.2,0.8l-0.2,1.1l2.2,0.8l0.3-1.1l0.5,0.3l0.1,1.4l1,0.9l2.2,2.2l0.9,0.7l0.6-0.4l1.6,0.2l1.4,0.6
			l1,2.2l0.8,1.1l1.4,0.9l0.2,0.7l-0.4,0.4v1.4l-1.1,0.8l-1.1-0.9l-1.4,0.2l-1.7,1.5l-2.1-0.5l0.1-1.1l0.9-1.1l0.2-2.2l-1-1h-1.6
			l-0.4-0.9l-2.1-0.6l-1.4-1.3l-1,1.3L629,527l-0.6-1l-3.3-2.4L625,523l0.6-0.8l0.1-0.8l-0.8-0.1l-0.5-1.3l-1.5-0.2v-1l-1.7-2.3
			h-1.1l-0.9-2.8l-1.4-0.2v-1.2l-0.9-0.6l0.1-0.8l-1.5,0.7l0.1,1.5l-1-0.1l-0.7-1.1l-0.4-2.6l0.3-0.7l-0.2-2.2l1-0.5l-0.1-3l0.8,0.2
			l0.6-1.2l-0.9-0.2l1.1-1.6l-0.3-0.6l1-1.5l-0.9-0.1l0.3-2.5l0.4-1.2l0.7-1.2l0.2-1.9l1.7-1.2l1.8-4.9l0.9-0.6l0.1-2.6l-1-1.7
			l0.1-2.2l-0.7-1.4l-0.3-2.3l-0.9-0.9l0.2-1.7l-0.3-1.5l0.6-1.3l-1-3.3l-2.1-2.1l-2.3-1.8l-2-2.5l-0.1-1.4l-1.1-2.7l1.6-0.9
			l0.2-1.2L612,449l0.6-1.1l1.4-0.8l-0.2-1.6l-1.6-0.8l-0.3-1.7l-0.9-2l-1.2-0.4l-1.8-4l-2-1.4l-0.4-1.2l-1.1-1.1l-1.3-2.2l-1.2-0.3
			l-0.2-1.2l2-0.8l1.4-1.1l-0.6-1.3v-2.3l1.1-1.1l-0.4-2.7l1.2-1.7l2.9,1.2l1.8-1.5h1.7l0.5-0.8l0.1-1.9l1-0.9l1.9,0.3l0.6-0.8
			l-0.8-1.1v-0.9l1.7-0.6l2.3-0.1V410.6L620.2,410.6z M624.5,524.3l0.6,1.2l0.6-0.2l-0.2-1l-0.6-0.3L624.5,524.3L624.5,524.3z
			 M619.6,516.7l0.3,1.6l0.2-0.8l-0.1-0.7L619.6,516.7L619.6,516.7z M614.2,512.8l-0.3,1l0.3,0.6l-0.1,1.6l1-1.3v-1.9
			C615.1,512.9,614.3,512.8,614.2,512.8L614.2,512.8z M642.2,479.7l0.1,1.3l1.1,0.9l0.8-0.2L642.2,479.7L642.2,479.7z M627,498.7
			l-1.4,0.5l1,0.3L627,498.7L627,498.7z M627.4,500.3l-1.1,0.7l0.1,1l1.1,0.9l0.3-1.6L627.4,500.3z"/>
		<path class="st1" d="M590.4,344.8l1.3-0.6l1.8,0.8l1.2-0.7l1.8,0.1l1,2.1l1.5,1.1l0.4,2.4l1.3-0.1l1.4,1.6v2.3l1.3,2.6l0.2,2.3
			l-0.4,3.3v1.6l-0.3,0.9l-1.4,0.7l-0.2,1.4l-0.7,0.2l-0.4,1.1l0.7,1.5l-0.6,0.9l-1-0.4l-1.1,1.1l-0.6,1.3l0.7,1l-0.7,1.2v1.3
			l1.3,0.6l0.6,1l1.1,1l-0.2,1.8l0.7,1.8l1.8-1.3l3.5-0.7l0.3,1.2L606,382l0.9,0.8l2-0.5l0.4,1.3l-0.5,1.3l0.9,1.2l2,0.4l-0.4,0.7
			l0.6,1l0.3-0.6l2.2-0.3l1.6,1v1.2l-0.7,1.3l0.1,1.1l-1.8,2.5l-1.4,1.4l0.3,1.1l1.2-0.6l2.4,0.3l0.4,0.4l1.2-1.1l1.1,1.4l-0.4,2.1
			l0.5,1.4l1.8,0.9l1.1-1h1.7l3.5-1.5l1.5,0.5l-0.2,1.4l-2.2,1.9l-2.2,0.4l-0.1,1.4l-0.9,1.2l0.7,1l-1.6,1.3h-0.8l-0.9,2.1l-2.3,0.1
			l-1.7,0.6v0.9l0.8,1.1l-0.6,0.8l-1.9-0.3l-1,0.9l-0.1,1.9l-0.5,0.8h-1.7l-1.8,1.5l-2.9-1.2l-1.2,1.7l0.4,2.7l-1.1,1.1v2.3l0.6,1.3
			l-1.4,1.1l-2,0.8l0.2,1.2l1.2,0.3l1.3,2.2l1.1,1.1l0.4,1.2l2,1.4l1.8,4l1.2,0.4l0.9,2l0.3,1.7l1.6,0.8l0.2,1.6l-1.4,0.8l-0.6,1.1
			l0.9,3.9l-0.2,1.2l-1.6,0.9l1.1,2.7l0.1,1.4l2,2.5l2.3,1.8l2.1,2.1l1,3.3l-0.6,1.3l0.3,1.5l-0.2,1.7l0.9,0.9l0.3,2.3l0.7,1.4
			l-0.1,2.2l1,1.7l-0.1,2.6l-0.9,0.6l-1.8,4.9l-1.7,1.2l-0.2,1.9l-0.7,1.2l-0.4,1.2v-0.3l-0.7,1.6l-0.2,2.3l-0.8-2.4l-0.1-2.2
			l-0.5-0.9l-0.1-0.8l0.6,0.2l0.6-0.5l0.9-1.5V489l-0.5-0.4l0.3-2l0.5-0.2l0.4-0.9l-0.7-2.1l1.1-0.8l-1.1-1.2l-0.8-1.1l-0.1-2
			l0.5-0.8L615,476l-0.8-0.6l-0.5-4.7l-1-0.9l-0.3-1.6l-1.1-1.9l-0.3,2.4l-0.5,0.3l0.1-1.3l-0.7-1.4l0.1-3.4l-1.1-1.3l-0.1-1.6
			l0.6-0.6l-1.9-1.1l-0.1-2.7l-0.5-0.1l-0.6-5.7l-0.9-0.6l-0.3-1.5l0.6-0.2v-0.9l-0.9-1.8l0.4-0.7l0.1-0.9l-0.5,0.9l-1,0.4h-1.3
			l-0.4-1.9l-0.6-0.8l-1.5-3l-0.3-0.8l-0.8-0.1V437l-1.4-0.8l0.9,1l-0.3,0.5l-0.1,0.9l0.9,0.6l-0.2,1.6l-0.7,0.8l0.3,0.9l-2,1.6
			l-1.3-0.2l-0.9-1.1h-0.5l0.6,1.2l-0.1,0.5l1.2,0.3l-1.7,1h-1.1l-0.8-0.5l-0.4,1.3l-3.1,2.1l-1.5-0.2l-0.2,0.3h-0.8l-0.1-0.4
			l-0.2,0.8l-0.8,0.2l-0.9-1.1l-2.1,1.1l-0.2,1l-0.9,0.1v-2.1l2-1.9l0.1-2.5l-0.9,2.3l-1.6,1.4l-1.2,1.9l-0.2-0.7l0.2-0.6l-0.5-1.6
			l1.3-7.7l1.7-1.1l-0.7-0.7l-1.4-3.4l-0.2-3l-0.8-0.3l-0.5-0.8l0.5-0.3l-1.1-0.9l-0.6-2.2l-0.9-1.2l-0.6-1.2v-1.3l-1.9-1.2l0.6,1.3
			l0.3,2.7l-2.9-0.8L570,423l-0.1-0.9l-1.5-1.3l-0.2-0.8l1.4,0.1l0.5,1.2l1.2,0.6l0.5-0.5l-0.5-0.2l-1.1-1.1l1.2-0.7l0.9,0.9
			l0.9-0.3l-0.1-1.3l-1.5-2.2l-2.4-0.5l-0.6-1l-1.3-0.2l-0.3-1l-0.2,1l-1.4,0.2l-0.1-0.6l1.2-1.3l-1.5,0.1l-1.2-1v0.7l0.8,1.3
			l-3.4-3.1l-0.6-2l-0.8-1.6l0,0l-0.1-0.5l0.2-1.5l1.5-1.8l0.6,0.4l0.8-1.9v-2.7l0.3-1.4l0.7,0.3l0.8-0.4l0.9-2.6l-0.4-1.6l0.3-1.9
			l-0.3-2.1l1.6,0.2l0.2-2.8l0.1-2l-0.9-3.8l1.6,0.1l1.3,0.4l2.1-0.1l1.2-2.9l0.7-3.3l1.7-4.1l-1.8-0.9l-0.1-1.2l2.2-3.5l1.1-3.1
			l-0.8-1l0.4-1.8l2.6-4l1.7-0.6l1.8-2.3l0.8-1.8l2.5-0.8l2.2-1.6l1.3,1.1l1.5,0.7l-0.4-1.3v-2.1l1.5-1.4l-0.2-1.2L590.4,344.8
			L590.4,344.8z M569.6,426.2l0.4,1.1l1.6,0.9l0.4-1.3l-1.2-1.2L569.6,426.2z"/>
		<path class="st1" d="M469.9,514.7l0.3-1.8l-0.1-1.3l0.9-0.4l-0.1,0.3l-0.4,0.2l0.3,1.2L469.9,514.7L469.9,514.7z M472.9,501.7
			l-2-1.3v-0.9l2.5-0.2l0.4,0.3l-0.6,1.3l-0.4,0.1L472.9,501.7L472.9,501.7z M474.7,499.9l1.1,0.3l0.3,1.2l1.8,1.1l0.3,0.7l-0.8-0.6
			h-1.3l-0.7-0.6l-1.6-0.7l0.1-0.6l0.9-0.1l-0.5-0.3L474.7,499.9L474.7,499.9z M473.4,502.2l-0.1,0.4l0.3,0.5l-0.2,0.3l-0.4,0.1
			l0.2,0.5l-0.1,1l-0.8,1.4l-0.5-0.2l-0.8-0.8l-1-0.1v0.4l0.8,0.4l0.5,0.7l-0.3,0.4l0.6,1.5v2.1l-0.5,0.8l-0.5,3.5l0.2,1l-0.4,0.4
			l0.7,2.9l-0.3,1.1l1,3.7l1.2,4.1l1.1,1.8l1.8,1l1.5-0.4l2.6-0.3l2.4-0.8l2.5-2.6l1.1-2.2l0.5-1.4l-0.1-1.3l0.3-0.4l-0.1-2.1
			l-0.6-0.9l0.4-1.2l-1.2-1l-1.3-3.4l-1-2.4l-1.3,0.2l-0.1-0.3l-1.2-0.1l1.5-0.8l-0.2-0.7l-0.6-0.3l-1-1.8l-0.8,0.1l-0.5-1.5
			l-0.5-0.6V504l-2.2-0.8l-0.4,0.5l-1-0.3l0.1-0.6L473.4,502.2z"/>
		<path class="st1" d="M443.7,308.1l0.5,1l0.1,1.3l2.1,1.1l-0.3,3l0.8,1.4l-0.5,0.9l0.8,0.6l0.9,1.3v1.2l0.7,0.2l0.5,1.7l1.7,0.8
			l0.9-1.4l1.7,0.1l0.7,0.8l1.8,0.3l1.5,1.6l1.2,0.4l0.9,1.8l1.3,0.2l0.6,1.3l0.1-0.2l0.2,2.7l-1.2,4.1v2.6l-1.8,2.7l0.5,1.9
			l1.7,0.2l1.3,1.1l1.4,0.1l1.3,0.9l2.7,0.8l3.6,2.3l2.3,2.9l3,0.7l1.5,1h2.1l2.6,1.7l3.9-0.3l1.3,1.2l4-1.1l3.7,0.9l0.4,2l2,1.8
			l4.1,1.1l1.4-0.8l2.7-0.1l6.7,2.4l1.7-0.9l2.9,1.6l4.8-1l0.6-3.6l-1.4-3l0.7-3.7l-0.5-1.7h0.2l1.4-1.2l1.8-0.2l0.9,1.6l0.1,1.9
			l1.5,1.1h0.1l-0.2,1.8l-0.6,1.3l1.5,2.4l2.6,0.6l1.1-0.7l3.8,2.2h2.1l1.6-1.9l1.7-0.2l1.6,0.7l2.8-0.8l2.1,0.1l3.1-1l-0.1-1.2
			v-2.2l-2.4-1.1l-0.2-1.6l0.5-1.9l1-0.1l2.8-0.7l1.3-0.1l0.8-1.9l1.1-0.9l1.2,0.4v-1l1.6-0.4l0.5-1.6l1.3-1.6l1.7-0.3l2.8-0.7
			l1.7-2.2l-0.1-1.7l1.1-0.2l1.7-1.2l1.4,2l2-0.6l2.9,0.9l0.8-0.8l-0.2-1.4l3.3-1.9l1.2,0.4l0.8,1.1l1.1-0.3l0.3,0.7l-1,2.4l0.6,1.2
			l0.9-0.3l1-0.3l0.3,1.2l1.1,1.5v1.1l-1.2,1.3l0.4,1.3l1.7,0.3l0.9-0.4l1.4,0.6l1.6,1.6l0.2,1.2l-1.5,1.4v2.1l0.4,1.3l-1.5-0.7
			l-1.3-1.1l-2.2,1.6l-2.5,0.8l-0.8,1.8l-1.8,2.3l-1.7,0.6l-2.6,4l-0.4,1.8l0.8,1l-1.1,3.1l-2.2,3.5l0.1,1.2l1.8,0.9l-1.7,4.1
			l-0.7,3.3l-1,2.7l-2.1,0.1l-1.3-0.4l-1.6-0.1l0.9,3.8l-0.1,2l-0.2,2.8L565,390l0.3,2.1L565,394l0.4,1.6l-0.9,2.6l-0.8,0.4
			l-0.7-0.3l-0.3,1.4v0.8l-0.3-0.3l-0.4-0.6l-0.1-0.8l-0.3-0.5l-0.6-1.2l-0.6-2.1l-0.4-3.1l-0.6-1.2v-1.6l-0.5-2.2l-0.7-1.1
			l-0.4-0.7l-1.3,0.1l-1-0.7l-0.7,0.6l0.5,0.7l-0.4,0.7v0.8l-0.8,1.2l0.5,0.4l-0.1,1.2h-0.8l-1.2-1.6l-1.2-1.2l-0.3-0.8l-0.8-0.7
			l-0.8-2.1v-0.9l0.6-0.5l0.3-1l1.5-1l0.6,0.6l0.9,0.1l0.6-0.8v-1l0.9-0.5l1-2.6l0.3-1.9l0.8-1.6l-0.8-0.3l-1.3-1.4l-0.9,0.2
			l-0.6-0.4l-1.3,0.1l-2.6,0.1l-2.3-0.3l-3.1,0.2h-2l-1.6-0.7l-1.4,0.1l-1.4-0.6l0.1-1.1l-0.6-1.7l-0.2-0.9l-0.3-1.8l-1.1-1.9
			l-0.8,0.2l-0.1,0.6l-1.5-0.5l-0.8-0.8l-1.1-0.9l-0.7-0.1l-0.3,0.9l1.1,0.7l-0.8,0.4l-1.6-0.2l-1.1-1.4l0.1-0.8l-1.1-1.2l-0.6-0.9
			l-0.4,1.1l-0.7,0.1l0.1,1.1l0.8,0.7l-0.7,2l-1.5,1.7l-0.2,1.8l3.6,1.3l1.4-0.6l2,0.2l-0.3,0.9l0.4,2l-1,0.8l-0.9-0.3l-1.1,0.7
			l-0.7,2.1l-1.4,0.3l-0.1,3.1l1.7,2.1l2,0.8l1.9,2.4v2.6l0.7,1.9l-0.3,1.4l0.4,2.4l2.2,3.1v2.1l0.5,1.3l0.2,2.4l-0.4,0.1l0.9,1.7
			l-0.8,1.4l-1.2-1.3v0.8l-0.8-0.5l-0.5-1.8l-0.3-0.9l-0.2,0.7l-0.2,0.9l-0.2-0.4l-0.3,0.5h-1.2l-0.1,0.2l-1.3-0.4l-0.4-1.9l0.3-1.2
			l-1.2-1h-1.3l0.1,0.4l0.9,0.2l0.6,0.7l-0.5,0.4l-0.5,1.1l-0.1,1.1l-1.1,1.3l-4.8,1.8l-0.8,0.7l-0.3,1.2l-0.8,1.5l0.3,0.9l0.8,1.6
			l-0.1,0.5l0.5,0.2l-1.7,1.5l-0.4,1.4l-0.8,0.1l0.3,1l-2.8,2l-0.1,1l-4.2,2.2l-0.5-0.6V418l-0.3-0.4h-0.6l-1.3,1l-0.8,0.1l-0.3,2
			l1.2-0.5l0.4-0.5l0.7,0.3l-5.2,4.7l-1.3,3.7l-6.9,5.5l-1,2l-1.6,1.6l-2.9,1l-2.2,1.8l-0.2,1.6l0.3,1.8l-1.3,1.9l-1.8,1.2l-3.4-0.5
			l-1.5,1.3v1.6l-2.1,2.7l-1.2-0.1l-0.8-1.2h-0.6l-2.6,2.6l-0.8,1.4l0.1,2.7l1.3,3.8l-1.2,1.4l0.2,2.1v5.9l1.9,0.6l0.3,3.8l-1.7,5.1
			l-2,3.6v3l0.8,1.2l0.6,6.4v1.7l-1.5,0.6L469,496l-2,0.3l-0.9,1.5l0.4,0.6l-2,2.6l-0.7,0.9l0.2,1l2.5,1.3l0.3,0.4v0.6l-0.4-0.7
			l-1.2-0.5l-3.3,1.2l-0.5-0.1l-2.7,1.2l-0.9,1.4l-0.1,0.8l-0.3,0.3l0.3,0.6l-0.7,2l-3,1.9l-2.5-0.2l-2.3-1.6l-2.3-2.7l-2.7-5.7
			l-0.2-3.2l-0.8-2.9l-1.7-3.2v-1.5l-0.6-0.1l-0.8-2.2l-0.7-2.6l-2.3-2.6l-1.3-2.2l-0.6-0.1l-2.1-2.2l-0.9-2l-0.7-0.6l-0.2-3.2
			l-0.9-1.3l-1.3-3.5l-0.4-2.4l-0.8-1.7l-0.8-1.2l-0.2-2.8l-0.5-0.1l-2-2.3v-0.9l-0.5-0.1L422,455l-0.1-1l-1-0.6l-0.6-2.3l-1.3-0.8
			l-1.2-3.3l-0.1-4.3l-3.3-6.4v-2.1l-1.5-2.2l1.7-0.1l-2.3-2.9l0.1-1.6l1-0.2l-0.8-1.1l-0.1-1.4l-2.3-4.2l-0.3-2.6l1.4-0.7l-1.2-0.7
			l-0.1-1.3l0.8-1.7l-0.2-2.2l-0.7-2.2l-0.9-0.6l-0.7-3.6l1.7-1l0.6-0.9h1.2l-1.3-0.3l-1.8,0.3l-1-0.1l0.2-1.5l-0.7-1.3l0.3-1.5
			l0.4-0.3l1,0.2l1.3-1.3l0.6-1l-1.4,0.8l-0.9-0.4l-1.9,0.2l-0.6-1.3l-0.2,1l-0.1,1.5l-1.1,3l1.1,1.4l-0.3,2.7l-1.2,1.2l-0.1,0.8
			l-2.6,1.3l-4,2.5l-1.9,0.6l-2.8-0.6l-5.9-4.8l-2.4-3.2v-0.6l-0.7,0.1l-1-0.5l-3.4-3.4l-0.3-1l0.3-0.8l0.9-0.1l0.3,0.5l0.9-0.3v1.7
			l1.3,0.1l0.8-0.7l0.5-0.1l0.8,0.5l0.2-0.6l3.2-2.5h1l1.5-2.3l0.5,0.1l0.6-1.5l-1.6-0.1l-0.5-0.3l0.2,0.5l-0.1,0.7l-3.2,1.4h-1.9
			l-1.5,0.5l-5-1.7l-2.4-2.5l-1-0.5l0.1-1.6l1.5-2l1.7-0.9l-2.2,0.3l-2.1,1.4l0.1-2l1.6-1.1l1.1-0.3l0.7-1.9l1.2,0.3l1.3-0.7
			l5.3,0.3l3.1-1.1l0.6-0.7l1.8-0.6l-0.6,1.1l0.7,0.9l1.7-1.1l1.4-0.5l-0.6-0.7l0.2-1.1l-1.7-4.9l-1.5-2l0.4-1.1l-1.1-0.9l-1.5,0.1
			l-2.5-1.6l-0.3-2.8l0.1-1.9l-1.1-2.4l-1.4-0.1l-0.8,0.4l-1.8-0.6l-1.3,0.1v-1.9l1.2-3.1l1.2-0.4l2.1-2.9l0.3-1.3l1.4-0.7l1-0.7
			l1.7,0.7l0.3,1.5l1.1,0.2l2.9-1.5l4.1-0.2l2.4-2.7l1.5-4.6l3.6-2.5l0.9-1.7l0.3-2.5l1.7-2.4l2.5-1.2l0.8-1.9l-0.1-1.4l-1-0.8
			l2.2-2.4l1.2-0.9l0.2-1.8l0.4-3.8l-0.8-2.8l-0.4-0.7l2.4-2.3l1.4-0.5l1.4-0.9l0.9,0.2l2-2.2l2.3-3.8l2.3-2.1l1.9-0.1l1-1.8h1.6
			l4.2,2.8l2.2-1.2l2.1,0.8l0.8,2.1l1.9-0.1L443.7,308.1L443.7,308.1L443.7,308.1z M531.3,401.8v1.3l0.5-0.5L531.3,401.8
			L531.3,401.8z M530.5,401.2l-0.9,0.5l0.3,0.9l0.5,0.4l0.2-0.9L530.5,401.2L530.5,401.2z M528.3,401.6l0.2,1.5l0.8,0.6l-0.2-1.4
			L528.3,401.6L528.3,401.6z M526.2,402.1l0.1,0.8l0.6-0.3l0.7-1.8L527,400L526.2,402.1z"/>
		<path class="st1" d="M562.7,400.3v1.8l-0.8,1.9l-0.6-0.4l-1.5,1.8l-0.2,1.5l0.1,0.5l-0.1,0.2l0.4,1.9l-0.2,0.1l-1.1-2.7l-1.4-2
			l-0.6-0.8l0.4-0.9l0.1-1.2l-0.2,0.6l-0.9,0.9l-0.3-0.5l0.4-2.3l-0.5-0.4l0.3-1.7l0.1-1l-1-0.7l-2.4-5.3h-0.6l0.1,0.5l-0.5-0.2
			l-1.5,0.9l-2.7-1.3l-0.3-0.5l-0.9,0.1l-1.4-1.3l-0.6-2.3l0.3,2.7l1,1.6l-0.2,0.8l-1.6,0.6l1,0.4l1,1.7l-0.2,2.1l-1.5,0.6l-1.3,2.3
			l-1.2-0.8l0.7-1.3l0.6-0.3l0.3-0.7l-1.1,0.5l-1,1.6l-1-1.5l0.8-2.6v-0.5l-0.6-0.7l0.3,0.7l-0.6,1l-0.1,1.6h-0.4l0.8,1.8l-0.1,1.4
			l-0.8,0.4l-0.1-0.2l-1-0.7l-0.7,0.3l-0.3,1.1h-0.9l-0.3-0.7l-0.6-1.5l-0.7,0.3l-0.2-2.4l-0.5-1.3v-2.1l-2.2-3.1l-0.4-2.4l0.3-1.4
			l-0.7-1.9v-2.6l-1.9-2.4l-2-0.8l-1.7-2.1l0.1-3.1l1.4-0.3l0.7-2.1l1.1-0.7l0.9,0.3l1-0.8l-0.4-2l0.3-0.9l-2-0.2l-1.4,0.6l-3.6-1.3
			l0.2-1.8l1.5-1.7l0.7-2l-0.8-0.7l-0.1-1.1l0.7-0.1l0.4-1.1l0.6,0.9l1.1,1.2l-0.1,0.8l1.1,1.4l1.6,0.2l0.8-0.4l-1.1-0.7l0.3-0.9
			l0.7,0.1l1.1,0.9l0.8,0.8l1.5,0.5l0.1-0.6l0.8-0.2l1.1,1.9l0.3,1.8l0.2,0.9l0.6,1.7l-0.1,1.1l1.4,0.6l1.4-0.1l1.6,0.7h2l3.1-0.2
			l2.3,0.3l2.6-0.1l1.3-0.1l0.6,0.4l0.9-0.2l1.3,1.4l0.8,0.3l-0.8,1.6l-0.3,1.9l-1,2.6l-0.9,0.5v1l-0.6,0.8l-0.9-0.1l-0.6-0.6
			l-1.5,1l-0.3,1l-0.6,0.5v0.9l0.8,2.1l0.8,0.7l0.3,0.8l1.2,1.2l1.2,1.6h0.8l0.1-1.2l-0.5-0.4l0.8-1.2v-0.8l0.4-0.7l-0.5-0.7
			l0.7-0.6l1,0.7l1.3-0.1l0.4,0.7l0.7,1.1l0.5,2.2v1.6l0.6,1.2l0.4,3.1l0.6,2.1l0.6,1.2l0.3,0.5l0.1,0.8l0.4,0.6L562.7,400.3
			L562.7,400.3z M552.3,394.1l-0.5-0.5l-0.6,0.4l0.2,1.6l0.7-0.4L552.3,394.1L552.3,394.1z M548.3,393.7l0.8,1.6l-0.2,1.3l0.7,1
			l1.1-2l-0.4-1.2l-1.9-1.4C548.3,393,548.3,393.6,548.3,393.7L548.3,393.7z M546.7,392.6l-1.4,0.6l0.1,0.7l1.1,2.3l1.4,0.1
			l-0.2-2.3L546.7,392.6z"/>
		<polygon class="st1" points="527.8,351.1 529.3,350.4 531,347 534.8,344.8 537.2,344.5 538,345.7 541.7,346.1 543.2,346.8 
			545.2,346 547.1,346.1 548.4,347.7 548.7,347.7 548.2,349.6 548.5,351.1 550.8,352.2 550.8,354.4 550.9,355.6 547.8,356.6 
			545.7,356.5 542.9,357.2 541.3,356.5 539.6,356.7 538,358.6 536,358.6 532.2,356.5 531.1,357.1 528.5,356.6 527,354.2 
			527.6,352.9 		"/>
		<polygon class="st1" points="461.8,327.5 462.1,327 464.4,328.2 465,329 466.5,329 467.4,329.4 468.3,328 470.2,327.8 473,328.9 
			473.8,329.6 475.6,329.7 476.8,330.6 479.1,333 480.9,333 482.5,333.9 483.1,334.9 484.5,336.5 485.2,338.1 486,337.8 
			486.1,335.5 487,334.7 487.6,335.4 489.2,335.4 490.8,336.4 491,338.5 492.9,340.1 495.4,339.5 497.3,339.7 496.9,342.9 
			497.7,344.7 499,344.4 501.2,345.5 502.1,344.6 503.8,344.1 505.2,342.6 508.1,342.9 510,343.9 510.4,345.7 512.7,346.6 
			514.2,348.7 515.6,349 517.5,348.2 518.3,348.5 520.4,347.9 521.8,348 522.3,349.6 521.7,353.3 523.1,356.3 522.5,359.8 
			517.8,360.8 514.9,359.3 513.2,360.2 506.5,357.7 503.9,357.8 502.4,358.6 498.3,357.5 496.3,355.7 495.8,353.7 492.2,352.8 
			488.2,353.9 486.8,352.7 482.9,353.1 480.4,351.4 478.3,351.4 476.8,350.4 473.8,349.7 471.5,346.8 467.9,344.5 465.2,343.7 
			463.9,342.7 462.5,342.7 461.1,341.6 459.5,341.4 459,339.5 460.8,336.8 460.8,334.2 462,330.1 		"/>
		<polygon class="st1" points="374.2,386.8 374.3,384.8 375.9,383.7 377,383.5 377.6,381.5 378.8,381.8 380.1,381.1 385.4,381.4 
			388.4,380.3 389,379.6 390.8,379.1 390.2,380.2 390.9,381.1 392.6,380 394.1,379.5 393.5,378.8 393.7,377.7 392,372.8 
			390.5,370.8 390.9,369.7 389.8,368.9 388.3,369 385.8,367.4 385.5,364.5 385.6,362.6 384.5,360.2 383,360.2 382.2,360.6 
			380.4,360 379.1,360.1 379.1,358.1 380.3,355 381.5,354.6 383.5,351.7 383.9,350.4 385.3,349.6 386.3,348.9 388,349.6 
			388.3,351.1 389.4,351.4 392.3,349.9 396.4,349.6 398.8,346.9 400.3,342.4 403.9,339.9 404.7,338.2 405.1,335.7 406.8,333.2 
			409.3,332 410.1,330.1 410.1,328.7 409.1,327.9 411.3,325.5 412.5,324.5 412.7,322.7 413.1,318.9 412.4,316 411.9,315.4 
			414.4,313 415.8,312.5 417.2,311.6 418.2,311.7 419.7,310 419.5,308.4 417.6,307.9 415.7,308.6 413.4,308.1 412.4,306.1 
			409.7,305 406.8,304.3 404.1,301.8 403.7,299.5 402.5,294.3 401.1,292 401,289.6 402.3,289.1 402.5,287.5 404.7,286.1 
			404.6,284.2 402.4,283.6 402,282 399.9,280.8 397.8,279 396.2,277.1 394.7,277.6 393.6,278.1 392.5,277 392.1,274 395.9,271.5 
			395.4,270.2 393.1,270.6 391.4,269.6 388.8,270.9 386.9,272.6 384.8,272.6 383.6,274.5 382.1,275.9 385.5,280.8 385.7,284.2 
			382,289 383.9,290.7 383.9,292.9 381.9,295.9 379,295.9 376.2,294.7 374.3,296 375.2,298 376.8,298.9 377.7,301 377.4,302.3 
			375.6,303.3 373.9,303.5 373.2,304.6 373,307.3 372.5,309.1 372.4,310.1 371.9,310.8 372.4,314.2 370.8,316.7 369.3,314.8 
			368.4,314.8 368.3,315.9 366.4,315.7 365.5,315.1 363.7,315.3 363.2,316.3 360.3,318.5 361.6,318.9 360.7,320 357.9,321.3 
			357,320.7 355.1,321.1 354.5,322.2 354.2,323.5 352.7,324 351.7,325.2 351.9,327.4 352.4,329.9 352.3,331.5 352.9,333 
			352.6,334.4 349.5,335.7 346.9,335.6 344.4,336 340.3,336.2 337.6,336.9 336.6,337.7 334.2,337.6 331.6,338.3 322.7,338.5 
			312.2,335.5 312.1,335.5 316.1,340.9 317,342.6 319,344.7 321,345.8 321.6,346.6 324.2,346.8 325.6,347.4 325.9,348.2 328,348.4 
			328,351 328.6,352.8 328.7,354.9 329.1,356.3 331,356.2 333,357.5 333.2,360.5 332.1,361.6 330.1,360.8 326.4,361.9 325.6,362.7 
			323.2,363.7 322.5,365.2 322.9,366.5 321.7,368.1 322.4,370 322.1,372.7 322.1,374 323,374 323,375.1 323.7,375.4 325.9,374 
			327.6,373.9 327.7,374.6 328.4,374.4 329.5,373.5 331.2,373.6 331.9,373.8 333.2,373.5 334.2,373.6 335,373.6 335.2,372.8 
			335.8,371.9 337.4,372.9 338.4,372.9 338.6,372.3 339.4,372.5 339.9,373.4 341.1,373.4 342.1,374.1 343.4,374.1 345.1,372.4 
			347.2,372.4 348.4,372.8 349.5,372 350.8,372 351,371.4 351.6,371.9 353.8,372.2 355.7,371.5 357.9,371.4 359.6,372.7 
			360.3,374.4 360,375.7 360.3,376 359.8,376.1 359.9,376.7 361.2,376.7 363.4,375.7 363.4,377.2 365.1,379.2 365.5,381.9 
			365.8,382.2 365.8,383.3 365.2,383.7 365.6,383.8 366.3,383.8 366.8,385.5 368.2,385.4 370.4,385.3 373.2,386.6 373,387.6 		"/>
		<polygon class="st1" points="419.7,310 420.2,309.5 422.5,305.7 424.7,303.7 426.7,303.6 427.7,301.7 429.3,301.7 433.5,304.6 
			435.7,303.4 437.9,304.2 438.6,306.3 440.6,306.2 443.7,308.1 446,305.7 447.2,306.2 447.5,307.2 448.5,305.6 448,302.9 
			447.1,299.5 445.1,299 443.6,295.5 443.8,291.9 442.7,289.9 440.1,288.6 438.1,286.3 436.7,282.5 434.2,281.2 431.2,280.2 
			430.9,278.4 429.5,278 426.4,278.1 423.3,277.7 422.5,276.6 421.2,275.7 421.1,273.6 419.1,272.2 415.6,267.2 414.7,264.8 
			413.6,263.7 412.6,263.6 411.9,264.4 411,265 409.7,264.9 409,265.5 407.5,264.2 406.5,264.5 405.8,264.9 405.8,264.9 
			404.3,267.6 400.8,269 395.4,270.2 395.9,271.5 392.1,274 392.5,277 393.6,278.1 394.7,277.6 396.2,277.1 397.8,279 399.9,280.8 
			402,282 402.4,283.6 404.6,284.2 404.7,286.1 402.5,287.5 402.3,289.1 401,289.6 401.1,292 402.5,294.3 403.7,299.5 404.1,301.8 
			406.8,304.3 409.7,305 412.4,306.1 413.4,308.1 415.7,308.6 417.6,307.9 419.5,308.4 		"/>
		<polygon class="st1" points="393.3,264 396.8,261.7 399,261.2 399.4,262.9 402.3,262.5 403.3,261.3 406.6,261.3 406.9,262.6 
			404.6,264.6 405.8,264.9 404.3,267.6 400.8,269 393.1,270.6 391.4,269.6 388.8,270.9 386.9,272.6 384.8,272.6 383.6,274.5 
			382.1,275.9 385.5,280.8 385.7,284.2 382,289 383.9,290.7 383.9,292.9 381.9,295.9 379,295.9 376.2,294.7 374.3,296 375.2,298 
			376.8,298.9 377.7,301 377.4,302.3 375.6,303.3 373.9,303.5 373.2,304.6 373,307.3 372.5,309.1 372.4,310.1 371.9,310.8 
			372.4,314.2 370.8,316.7 369.3,314.8 368.4,314.8 368.3,315.9 366.4,315.7 365.5,315.1 363.7,315.3 363.2,316.3 360.3,318.5 
			361.6,318.9 360.7,320 357.9,321.3 357,320.7 355.1,321.1 354.5,322.2 354.2,323.5 352.7,324 351.7,325.2 351.9,327.4 
			352.4,329.9 352.3,331.5 352.9,333 352.6,334.4 349.5,335.7 346.9,335.6 344.4,336 340.3,336.2 337.6,336.9 336.6,337.7 
			334.2,337.6 331.6,338.3 322.7,338.5 312.2,335.5 317.9,327.6 318.5,326.7 317.7,323.6 317.9,321.5 316.7,318.9 310,318.7 
			309.7,315.9 309,314.5 309.5,313.5 308.4,309.9 306.4,305.9 306.8,303.9 309.1,300.9 308.5,300.9 305.9,300.3 305.9,298.8 
			305.4,296 305,295.7 306.4,293.6 305.1,292.6 304.5,291.6 306.1,291.1 308.1,289.8 308,288.8 308.4,288.4 307.4,287.1 308,285.9 
			307.8,284.9 307.9,282.7 307.8,282.5 308.6,282.2 310.3,282.7 311.5,283.6 312.8,283.6 313.8,282.7 315.1,282.7 316.9,284 
			317.3,285.1 318,285.7 318.7,284.9 321,284.5 322.1,283.2 322.3,282.2 323.3,281.4 322.9,280.3 325.3,279 328.3,278.4 
			328.6,277.6 329.7,276.7 331,276.4 331.5,274.4 331.5,272.4 333.3,270.5 333.3,268.9 332.6,268.4 332.7,267.4 333.5,267.1 
			334.3,266.4 336.3,265.9 337,265.9 339.3,264.2 341.1,263.7 342.6,264.6 344.3,264.2 344.9,264.8 347.4,264.1 349,264.9 
			350,266.3 351,266.4 352.3,265.2 353.6,265.3 355.3,267.5 356.5,268 359,267.4 360.7,266.5 361.5,265.2 362.4,265.1 363.3,264.2 
			364.1,264.8 364.9,265.9 367.6,266.1 367.5,264.9 366.8,264.2 366.9,263.1 368.6,262.7 369.2,261.9 370,261.9 370.2,262.7 
			371.9,262.5 372.9,260.9 372.5,258.7 373.2,257.7 374.1,256.9 374.4,254.6 375.2,253.2 377,253.2 378.4,254.2 379.7,254.9 
			379.7,256.1 379.4,257.9 379.9,259.4 381.1,259.3 381.7,260.7 381.6,262.7 381.8,264.2 381.9,267.2 383.1,268.8 383.1,269.9 
			384.5,270.4 386.4,270.4 387.7,269.4 388,268.6 390.7,267.4 391.9,266.3 392.3,264.9 		"/>
		<path class="st1" d="M179.2,233.3l0.1-1.3l2.9-1.1l4.3,2.4l2.9,0.1l2.8,1.4l0.4-2.8l-1.1-1.6l-2-1.2l0.8-2.8l2.2,0.2l3.6,2.9
			l1,1.9l3.6,0.3l0.7-1.3l2.2-1.2l2.7-3.3l1.6,1.2l2.4,3.1l0.1,1.5l1,2.2l2.6,1.8l0.3,1.2l1.7,1.3l2.1-0.1l2,0.8l1.1,1.6l-1.2-0.2
			l-1.1,0.8l-2.1,0.1l-2.3,1.9l0.2,2l0.3,1.6l-0.7,0.9l-0.2,1.4l0.5,0.8v1.1l-0.7,0.7v2.7l-0.4,1l-0.5-0.9l0.5-1.7l-1.1-1.1
			l-0.6,0.6l-0.4,1.2l0.6,2l-0.2,1.2l0.4,0.7v2.9l-0.7,0.4l-1.3-0.3l-0.5-0.9l-1.3-0.6l-2.6-2.8l2.5-1.7l-1.8-1.1l-0.4-0.8l0.9-0.8
			l-1-1l-0.7-1.1l-0.7-0.2l-0.1-0.4h-0.8l-1.4,1.1l-1.1,0.2l-1,1.3l-0.9,0.4l-1.3,1.8h-0.8l-0.5,0.8l-0.3,0.9L195,256l-1.1-0.4h0.1
			v-1.7l0.6-0.7l-1.1-2l1.9-0.4l-1.8-1.7l-2.2-0.1l-3.5-1.9l-1-2.3l1-1.1l-0.1-1.6l-3.1-2.6l-0.1-1.6l0.6-1.8l-1.6-1.6l-2.8-0.3
			L179.2,233.3L179.2,233.3z M192.1,256.2l-3.4-5.2l-1.9-0.6l-1.2-2.4h-1.3l-0.9,0.8l-2-1.9l-1.2,0.7h-1.3l0.3,0.5h0.3l1.1,1.3
			l1-0.1l0.5,1.4l-0.1,1.1l3.4,1.8l0.3,1.5l2,1l2,0.1l2.2,1.2L192.1,256.2z"/>
		<polygon class="st1" points="179,248.1 179.3,248.1 180.4,249.4 181.4,249.3 181.9,250.7 181.8,251.8 185.2,253.7 185.5,255.1 
			187.5,256.2 189.5,256.2 191.6,257.5 192.1,256.2 192.1,256.2 193.8,255.9 194.9,256.3 196.2,255.7 196.5,254.8 197,254.1 
			197.8,254 199.1,252.2 200,251.8 201,250.5 202.1,250.3 203.6,249.2 204.4,249.2 204.5,249.7 205.2,249.8 205.9,251 206.9,252 
			206,252.8 206.4,253.6 208.2,254.7 205.7,256.4 208.3,259.2 209.5,259.8 210,260.7 211.3,261 212,260.5 212,261 213.1,262.6 
			213.3,264.5 213,266.2 213.5,267 214.6,267.1 216.1,268.7 218,268.7 219.2,269.2 221.1,268.5 222.8,269.7 224,269.7 224.5,271.4 
			225.6,272.8 229.5,274.4 231.2,274.6 235.9,275.9 238.2,275.9 243.3,274.5 247.1,274 251.6,274.3 253.3,274.7 253.8,272.7 
			252.7,271 251.9,268.9 253.5,268 257.3,267.8 258,265.7 259,264.5 260.3,264.4 263.5,261.6 266.8,261 269.6,261.6 270.2,259.8 
			271.8,259.4 273.3,260 275,260 277.8,262.2 280.1,262.9 284.6,265.7 285.9,265.6 287.1,264.8 290.2,266.1 291.8,266.4 
			292.2,268.6 293,269.2 294.6,268.8 297.5,269.5 300.6,273.8 304,274.1 305.9,274.9 307.1,277.1 306.6,278.2 307.2,280.1 
			307.2,281.3 307.9,282.7 307.8,284.9 308,285.9 307.4,287.1 308.4,288.4 308,288.8 308.1,289.8 306.1,291.1 304.5,291.6 
			305.1,292.6 306.4,293.6 305,295.7 305.4,296 305.9,298.8 305.9,300.3 308.5,300.9 309.1,300.9 306.8,303.9 306.4,305.9 
			308.4,309.9 309.5,313.5 309,314.5 309.7,315.9 310,318.7 316.7,318.9 317.9,321.5 317.7,323.6 318.5,326.7 317.9,327.6 
			312.1,335.5 316.1,340.9 317,342.6 319,344.7 321,345.8 321.6,346.6 324.2,346.8 325.6,347.4 325.9,348.2 328,348.4 328,351 
			328.6,352.8 328.7,354.9 329.1,356.3 331,356.2 333,357.5 333.2,360.5 332.1,361.6 330.1,360.8 326.4,361.9 325.6,362.7 
			323.2,363.7 322.5,365.2 322.9,366.5 321.7,368.1 322.4,370 322.1,372.7 322.1,374 321.7,374 321.3,374.6 320.2,375.3 
			317.6,374.3 315.7,373.6 314.9,372.3 313.9,372.5 313.6,373.8 313.1,373.9 312,372.9 311.3,373.2 310,372.7 306.6,372.6 
			304.2,371.5 299.9,371.8 297.9,369.9 297.2,369.8 295.4,371.4 294,370.3 292.3,370.3 288.2,370.4 287.9,369.6 287,369 
			286.9,366.9 285.4,364 284.6,361.2 283.2,359.2 283,358.4 282.3,358.5 282.3,358 279.7,357.6 278.1,358.1 276.1,359.6 
			274.5,359.6 274.3,358.9 274.3,359.8 271.1,361.8 268.4,364 265.3,362 262.8,361.3 260.9,361.6 260.2,362 257.5,359.6 
			256.2,359.5 255,358.7 253.2,358.2 250.9,355.9 251.8,355 251.6,354.3 250.1,354.2 249.8,353.7 247.3,353.6 246.5,352.7 
			244.5,352.1 241.7,352.4 240.2,351.4 237.8,346.2 237.5,345 236.8,345.2 235.4,344.1 235.8,343.7 236.3,344 236.9,344 
			236.1,342.6 234.9,342.8 234.1,342.3 233.9,339.9 231.1,336.5 230.9,335 229.3,332.9 228.4,332.5 226,334.5 225.3,334.4 
			224.5,333 223.8,333.3 222.1,332.5 222.3,331.6 222.6,330.7 222.2,331.2 221.1,331.2 220.2,331.1 221.4,332.1 221.3,333.5 
			220.4,334.3 219.5,334.3 218.3,332.8 218.4,332.4 217.7,332.7 217.1,332.2 215.5,331.5 214.1,330.6 213.6,325.8 211.2,325.8 
			210.6,323.7 210.7,321.5 212.3,320 210.7,316.6 209.3,315.8 207.8,313.1 206.9,312.4 206,312.7 200.3,309 199,309.1 198.2,309.6 
			196.6,308.4 196.9,307.5 196.4,306.9 197.1,305.3 195.4,303.9 195.1,302.7 193.4,302.4 192.6,301.4 191.5,301.2 191.5,300.2 
			192.1,299.4 191.6,298.6 192.1,297.5 192.1,294.7 193,294 193.3,291.6 194.3,291.8 195.2,291.2 195.2,288.5 194.6,288.1 
			194.4,286.1 195.3,285.9 196.8,285.4 197.3,285.1 196.6,284.6 195.6,284.1 193.9,284.2 192.8,284 190.2,282.5 189,282.3 
			187.6,281.5 186.9,279.7 186.1,278.5 185,278.2 184.3,276.7 184.3,275.3 183.6,273.4 182.1,273.2 182,273.3 182.4,272 
			181.6,270.2 180,267.2 177.9,266.4 178.1,265.5 178,263.3 179,261 178.5,260 176.7,259.8 176.6,257.7 176.9,256.2 176.1,253.4 
			175.3,251.9 175.3,251.1 177.4,250.9 178.2,248.9 		"/>
		<polygon class="st1" points="167.5,234.4 169.9,233.6 173.4,232.8 174.4,233 178.7,232.9 180.6,234.7 183.4,235 185,236.6 
			184.4,238.3 184.5,239.9 187.6,242.5 187.7,244 186.7,245.1 187.7,247.5 191.2,249.4 193.4,249.5 195.2,251.1 193.3,251.6 
			194.4,253.6 193.9,254.2 193.9,255.9 192.1,256.2 188.6,251 186.7,250.5 185.5,248 184.2,248 183.3,248.8 181.3,246.9 
			180.1,247.6 178.7,247.6 178.1,246.7 176.8,245.4 175.3,245.5 172.9,245.4 170.7,244 170.6,241 171.1,238.6 170.3,237 
			168.9,236.6 168.8,235.7 		"/>
		<polygon class="st1" points="217.7,332.7 217.1,332.2 215.5,331.5 214.1,330.6 213.6,325.8 211.2,325.8 210.6,323.7 210.7,321.5 
			212.3,320 210.7,316.6 209.3,315.8 207.8,313.1 206.9,312.4 206,312.7 200.3,309 199,309.1 198.2,309.6 196.6,308.4 196.9,307.5 
			196.4,306.9 197.1,305.3 195.4,303.9 195.1,302.7 193.4,302.4 192.6,301.4 191.5,301.2 191.5,300.2 192.1,299.4 191.6,298.6 
			192.1,297.5 192.1,294.7 193,294 193.3,291.6 194.3,291.8 195.2,291.2 195.2,288.5 194.6,288.1 194.4,286.1 195.3,285.9 
			196.8,285.4 197.3,285.1 196.6,284.6 195.6,284.1 193.9,284.2 192.8,284 190.2,282.5 189,282.3 187.6,281.5 186.9,279.7 
			186.1,278.5 185,278.2 184.3,276.7 184.3,275.3 183.6,273.4 182.1,273.2 180.3,273.8 179,273.2 179,271.7 178,271 176,271.6 
			173.3,270.9 170.1,270.9 169.4,271.5 167.5,271.5 165.4,273.3 165.8,273.5 164.8,275.2 164,275.2 162.4,276.6 159.4,277.2 
			158,279.7 157.9,282.2 159.3,285.1 159.4,287.6 158,290.3 158.4,291.5 158.4,293.6 157.1,295.4 156.4,296.6 142.7,306.4 
			142.7,306.4 142.7,306.4 146.6,316.5 153.5,317.3 189.5,342.4 204,342.6 205.8,339.4 207.4,335.6 210.9,334 213.6,335 
			215.3,334.5 216.1,334.8 216.9,333 		"/>
		<polygon class="st1" points="204,342.6 205.8,339.4 207.4,335.6 210.9,334 213.6,335 215.3,334.5 216.1,334.8 215.9,335.2 
			216.7,338.7 212.2,339.5 215.3,341.5 215.6,340.8 216.1,342 216.2,343.3 217.1,344.3 216.8,344.3 216.5,344.4 217.3,345.4 
			212.6,347.6 212.1,344.8 205.1,342.6 		"/>
		<polygon class="st1" points="142.7,306.4 156.4,296.6 157.1,295.4 158.4,293.6 158.4,291.5 158,290.3 159.4,287.6 159.3,285.1 
			157.9,282.2 158,279.7 159.4,277.2 162.4,276.6 164,275.2 164.8,275.2 165.8,273.5 164.8,272.7 162.6,272.8 159.6,273.9 
			155.7,273.6 154.2,273.9 152.3,273.9 149.5,274.7 148.4,276 146.4,276.6 146,277.3 142.5,277.2 140,276.7 139.3,276 137.8,275.6 
			133.8,276 132.7,276.6 131.8,276.7 128.1,278.2 126.8,277.9 124.5,277.3 124.1,278.5 124,281.4 123,282 123.2,283.7 121.7,284.3 
			120.1,284.6 118.6,284.3 118.5,284.4 117.5,284.9 117.8,287.2 119.1,289.7 119.6,291.8 119.3,293.4 119.1,296.4 122.3,296.5 
			123,298.2 124.4,298.9 124.3,301 124.8,302.1 124,302.6 123.2,302.6 121.7,303.4 121.1,305.5 120,307.3 119.8,307.3 120.2,307.9 
			121.3,308.9 121.5,311.7 121.1,312.9 121.8,313 124.3,314.1 125.9,315.3 126.4,315.3 127.5,316 		"/>
		<polygon class="st1" points="115.3,341.2 116.2,339.8 116.2,339.6 116.1,338.6 116.9,337.8 116.9,336 117.5,334.1 117.4,331.9 
			117.9,331.6 117.9,329.9 118.3,328.1 118.2,327 118.5,323.6 117.9,323.8 117,323.8 115.7,324.5 115,323.7 115.3,321.4 
			115.3,317.7 114.9,317 115.3,314.9 117.1,314.9 117.3,316.1 118,316.2 119,315.4 118.9,314.5 119.1,314.5 118.8,313.8 
			118.5,312.5 118.9,310.2 119.3,308.2 119.7,307.3 118.9,307.4 118.1,309 115.6,309 114.7,308.8 113.1,310.7 112.5,316.3 
			110.3,320.7 107.9,323.9 108.7,324.3 110.2,326.6 111,329.4 113.2,332.7 114.9,336.7 114.3,338.6 		"/>
		<polygon class="st1" points="119.1,314.5 118.8,313.8 118.5,312.5 118.9,310.2 119.3,308.2 119.7,307.3 119.8,307.3 120.2,307.9 
			121.3,308.9 121.5,311.7 121.1,312.9 121,312.9 120,313.7 119.5,314.5 		"/>
		<polygon class="st1" points="117.9,323.8 117,323.8 115.7,324.5 115,323.7 115.3,321.4 115.3,317.7 114.9,317 115.3,314.9 
			117.1,314.9 117.3,316.1 118,316.2 119,315.4 119,315.9 119.1,316.8 118.9,317.5 118.7,319.6 118.8,320.7 118.5,323.6 		"/>
		<polygon class="st1" points="114.7,308.8 115.6,309 118.1,309 118.9,307.4 120,307.3 121.1,305.5 121.7,303.4 123.2,302.6 
			124,302.6 124.8,302.1 124.3,301 124.4,298.9 123,298.2 122.3,296.5 119.1,296.4 119,296.8 118,297 117.6,302.5 116.3,304.5 
			114.9,306.5 114.9,308.6 		"/>
		<polygon class="st1" points="116.2,339.8 116.2,339.6 116.1,338.6 116.9,337.8 116.9,336 117.5,334.1 117.4,331.9 117.9,331.6 
			117.9,329.9 118.3,328.1 118.2,327 118.8,320.7 118.7,319.6 118.9,317.5 119.1,316.8 119,315.9 118.9,314.5 119.5,314.5 
			120,313.7 121,312.9 121.8,313 124.3,314.1 125.9,315.3 126.4,315.3 127.5,316 142.7,306.4 146.6,316.5 146.2,316.4 143.5,319.3 
			132,322.9 140.7,332.4 137.4,336.3 137.2,338.5 131.3,339.4 125.8,344.8 118,342.6 115.6,342.7 115.6,342.4 116.3,340.5 
			116.2,339.7 		"/>
		<polygon class="st1" points="217.3,345.4 212.6,347.6 212.1,344.8 205.1,342.6 189.5,342.4 153.5,317.3 146.2,316.4 143.5,319.3 
			132,322.9 140.7,332.4 137.4,336.3 137.2,338.5 131.3,339.4 125.8,344.8 118,342.6 115.6,342.7 115.4,345.5 115.5,348.8 
			114.7,351 114.8,351.8 116,351.4 116.3,352 117.3,351.3 119,352.3 118.6,352.6 122,356.4 122.3,358 123.1,358.4 123.4,359.9 
			125,361.5 125.9,361.5 128.1,365.3 128.1,366.5 128.7,367.9 129.9,368.1 130.3,370 131.1,371.1 132.8,371.8 134.2,375.5 
			135.3,376.3 135.8,378.6 135.3,379.6 135.3,380.7 136.9,381.9 137,383.1 138.1,383.8 139.2,382.6 140.9,384 143.3,385.1 
			145.2,387.1 145.8,388.7 146.4,388.9 146.6,390.8 147.4,391.4 148,394 149.5,395.4 150,398.1 150.5,398.9 149.9,401.5 149.3,402 
			149.9,403.2 150.7,406 151,408.9 152.4,410.2 152.6,411.2 156.5,415.4 157.8,416 159.4,416.1 160.4,417.6 161.2,417.6 
			163.5,419.5 163.5,420.7 165.5,421 165.2,422.2 166.2,422.6 168,429.2 169.7,430.2 169.8,432.2 175.6,438.1 176.5,438.1 
			177,441.4 179.5,442.1 180.8,446 182.2,446.2 183.4,446.7 184.2,445.1 186.3,443.8 184.9,441.2 185.9,437.5 187.9,436.6 
			190.3,438.5 195.1,438.7 201.7,441.3 208.6,444.7 208.9,451.7 222.9,432.7 274,417.5 275.1,400.7 273.3,394.4 273.3,394.4 
			270.7,396.8 248.2,393.3 246.5,387.3 244.6,385.1 244.7,382.5 244.6,382.4 244.2,382.6 243.5,381.4 243.6,380.6 244.3,379.8 
			243,379.9 242.8,379.5 241.5,379.5 239,378.2 238.7,377.5 238.3,377.7 237,375.9 236.7,373.9 232.8,369 231.8,367.2 232.6,367.4 
			232.6,366.5 231.2,362.8 231.2,361.9 230.2,360.4 229.5,360.4 227,356.8 226.1,356.7 225,355.5 225.1,355 225.6,354.9 
			226.2,355.3 225.6,354.3 224.3,354.1 221.7,353.5 220.2,349.6 219.4,347.7 218.4,347.2 218.4,345.9 217.9,346.2 		"/>
		<polygon class="st1" points="242.8,379.5 241.5,379.5 239,378.2 238.7,377.5 239.1,377.2 239.1,375.6 238.6,375 238.2,373.9 
			238.5,371.5 239.1,371.5 239.5,371.8 239.1,369.5 239.5,369.5 239.2,368.3 239.7,367.9 239.7,367.2 240.3,367.2 240.5,366.5 
			241.1,366.5 242.4,367.5 242.5,368.3 243.2,368.3 243.5,368.9 243,371.4 242.6,371.4 242.9,374 243.4,374 244.2,375.5 
			243.7,379.3 		"/>
		<polygon class="st1" points="244.7,382.5 244.6,385.1 246.5,387.3 248.2,393.3 270.7,396.8 273.3,394.4 279.9,374.1 281.4,373.9 
			281.2,371.9 281,370.9 280.3,371.1 279.9,370.8 279.9,370.6 279.2,370.5 279,367.8 278,367.5 278,368.6 277.5,369.4 272.8,372.2 
			272.8,374.3 268.3,378.1 267.6,379.2 268.3,379.5 268.7,380.4 266.7,382.5 266,381.5 265.3,382 264.4,382 264.5,383.2 264,383.3 
			263.7,384 261.4,384.4 259.7,384.6 259,383.7 257.5,383.8 256.9,383.5 255.8,383.7 253.2,383.1 250,385.6 248.8,385.2 
			247.6,385.1 246.4,385.7 245.9,382.2 245.3,382.9 		"/>
		<path class="st1" d="M252.1,424l21.9-6.5l1.1-16.8l-1.8-6.2l6.6-20.4l1.5-0.2l0.4,4.6l2.6,3.2l0.2,1l4.3,3.6l1.9,0.5l1-0.5
			l1.5-0.1l3.4,0.6l1.9-0.4l1,0.1l2.2,2.9l0.6,2l1.3,1.2l0.7,1.4l2.9,2.3l1.4,0.2l0.5,0.6l-0.1,1.5l-0.9,1.7l0.1,1l-0.3,1.2
			l-2.9,4.5l-1.9,1.7l-0.9,1.8l-0.9,0.8l-0.9,2.9l-0.9-0.1l-0.8-0.4l0.1-0.8l0.4-0.8l-0.7-0.3l-0.8,0.6l-0.9,1.7l-0.3,0.1l0.6,1
			l-0.9,0.2l-1.3,2.5v1.3l-0.5,1.2l0.3,0.1l0.7,1.4l-0.4,0.1l1,2.8l0.6,0.6l-0.3,0.8l-3.8,0.3l-0.8,0.6l-1.1-0.5l-1.7,0.5l-2.8,3.4
			v2.4l-0.7,0.6L284,435l-0.9-0.4l-1.9,0.3l-2.7-0.1l-0.7,0.7l-1.1,1.1l0.2,0.8l-0.1,1l0.7,0.4l-0.1,0.9l-0.4,0.1l0.1,0.3l-1.9,2.8
			l-0.9,0.1l-1.2-0.8l-1.3,0.3l-1.5-0.1l-2.7,1.5l-1.7-0.1l-1,1.6h-1.5l-0.4-0.3l-1,0.3l-4.4-5.3l1-3.3l-7-8.9L252.1,424L252.1,424z
			 M279.9,370.6v-0.9l0.6-1.2l0.2-2.2l-0.3-0.2l0.3-0.9l-0.4-0.5l0.3-0.3l0.3,0.1l-0.4-0.6L280,364l-0.6-0.1l-0.3,2.1l-0.4,0.5
			l-0.4-0.5l-0.3,0.7v0.7l1,0.3l0.2,2.7L279.9,370.6z"/>
		<path class="st1" d="M180.8,446l1.4,0.1l1.2,0.5l0.8-1.6l2.1-1.3l-1.4-2.6l1-3.7l2.1-0.9l2.3,1.9l4.8,0.2l6.6,2.7l6.9,3.3l0.3,7
			l14-18.9L252,424l-0.5,3.8l7,8.9l-1,3.3l4.4,5.3l-1.7,0.4l-3,0.6l-2.6,3.2l-0.2,1.9l0.6,0.6l-0.2,0.5l0.3,0.9l-3.3,0.7l-1.5,1.4
			l-3,1.5l-4.8,0.9l-0.8,0.8l-8.5,2.5l-0.8-0.1L231,462l-1.6,2.6l-2.2,1.9h-1.1l-0.5-0.4l-0.7,0.7l-1.1,0.2l-1-0.8l-1.2-0.1
			l-2.8,2.2l-0.2,0.9l-1,0.8l-2.9,0.3l-3.6,1.4l-1.5-0.4l-0.5-0.6l-2.2,0.1l-0.3-0.5l-1.2-0.1l-1,0.3l-1.9,1.2l-0.9,2l-0.8,0.1
			l-1.5,2l-1.5,0.6l-0.8-0.8h-1.5l-1.6,1.3l-1.3,0.3l-2.2-0.7L190,477l-1.6,0.2l-0.6-1.3l-0.3-1.9l-1.6-1.8l-0.8-2.1l0.8-0.5
			l-0.1-2.2l-2-1.8l-1-7.2l-1.9-2.4l-0.1-1.2H180l-0.5-1.1l1.2,0.3v-0.8h0.9l0.1-2.3L181,447L180.8,446L180.8,446z M254.7,481.4
			l1.6-0.5l2.1,0.6l-1.7,0.2L254.7,481.4L254.7,481.4z M264.3,479l0.9-0.5l0.1-1.2l0.9-0.8l1,0.1l0.4,0.8l1,0.2l1.1-0.3l1.5-0.3
			l1,0.5l1.2,0.3l0.1,0.6l-0.6,0.7l-1.2,0.1l-1.7,1.1l-2.3,0.4l-1.6-0.3l-0.9-0.8L264.3,479z"/>
		<polygon class="st1" points="729.2,394 726,395.8 725.6,397.8 727.2,398.4 732,396.2 731.6,394.2 		"/>
	</g>
	<g>
		<g>
			<g>
				<path class="st2" d="M573.3,284.3c-0.4,1.5-1.2,3.7-1.6,4.7c-0.8,0.2-3.2,0.7-5.4,0.7c-7.6,0-11-5-11-9.8
					c0-6.1,4.6-10.2,11.6-10.2c2.6,0,4.8,0.6,5.6,0.7c0.1,1.4,0.3,3.4,0.6,4.8l-1.1,0.2c-0.6-2.2-1.4-3.3-3-3.9
					c-0.7-0.3-1.8-0.5-2.8-0.5c-4.5,0-6.8,3.6-6.8,8.3c0,5.5,2.8,9.2,7.1,9.2c2.7,0,4.3-1.3,5.8-4.5L573.3,284.3z"/>
				<path class="st2" d="M596.7,271c-2.4,0.2-2.6,0.4-2.6,2.9v11.5c0,2.5,0.2,2.6,2.6,2.8v1H588v-1c2.4-0.3,2.6-0.4,2.6-2.8v-5.7
					h-8.7v5.7c0,2.5,0.3,2.6,2.5,2.8v1h-8.7v-1c2.3-0.2,2.6-0.4,2.6-2.8v-11.5c0-2.5-0.3-2.7-2.6-2.9v-1h8.7v1
					c-2.3,0.2-2.5,0.4-2.5,2.9v4.4h8.7v-4.4c0-2.5-0.3-2.6-2.6-2.9v-1h8.7V271z"/>
				<path class="st2" d="M599.1,289.2v-1c2.3-0.2,2.6-0.4,2.6-2.9v-11.4c0-2.5-0.3-2.7-2.6-2.9v-1h8.7v1c-2.3,0.2-2.6,0.4-2.6,2.9
					v11.4c0,2.5,0.3,2.6,2.6,2.9v1H599.1z"/>
				<path class="st2" d="M630.8,271c-1.8,0.2-2.4,0.6-2.5,1.9c-0.1,1.1-0.1,2.2-0.1,4.8v11.8h-1.5l-12.4-15v6.9
					c0,2.6,0.1,3.8,0.1,4.7c0.1,1.4,0.8,2,2.9,2.1v1H610v-1c1.7-0.1,2.5-0.6,2.6-2c0.1-1,0.2-2.2,0.2-4.8v-7.2
					c0-0.9-0.1-1.5-0.6-2.2s-1.2-0.9-2.5-1v-1h5.3l11.7,13.7v-6c0-2.6,0-3.7-0.1-4.7c-0.1-1.3-0.6-1.8-3.1-2v-1h7.3L630.8,271
					L630.8,271z"/>
				<path class="st2" d="M642.2,289.2v-1c1.9-0.3,2-0.6,1.6-1.8c-0.3-1-0.8-2.4-1.3-3.8h-6c-0.4,1.1-0.8,2.2-1.1,3.2
					c-0.6,1.9,0,2.1,2.3,2.4v1h-7.1v-1c1.9-0.2,2.3-0.5,3.3-3l6.1-15.4l1.3-0.2c1.9,5.1,3.9,10.5,5.8,15.5c1,2.7,1.3,2.9,3.3,3.1v1
					L642.2,289.2L642.2,289.2z M639.4,274.5c-0.9,2.3-1.8,4.5-2.6,6.7h5L639.4,274.5z"/>
			</g>
		</g>
		<g>
			<g>
				<path class="st3" d="M729,403c-1,0.1-1,0.1-1,1.1v4.6c0,1,0.1,1,1,1.1v0.4h-3.4v-0.4c1-0.1,1-0.1,1-1.1v-2.3h-3.4v2.3
					c0,1,0.1,1,1,1.1v0.4h-3.4v-0.4c0.9-0.1,1-0.1,1-1.1v-4.6c0-1-0.1-1-1-1.1v-0.4h3.4v0.4c-0.9,0.1-1,0.1-1,1.1v1.7h3.4v-1.7
					c0-1-0.1-1-1-1.1v-0.4h3.4L729,403L729,403z"/>
				<path class="st3" d="M734,402.4c2.1,0,3.9,1.6,3.9,3.9c0,2.4-1.7,4-4,4s-4-1.7-4-4C730,404.3,731.5,402.4,734,402.4z
					 M733.9,402.9c-1.3,0-2.1,1.1-2.1,3.3c0,2,0.9,3.7,2.6,3.7c1.1,0,2.1-1,2.1-3.3C736.3,404.1,735.3,402.9,733.9,402.9z"/>
				<path class="st3" d="M747,403c-0.7,0.1-1,0.3-1,0.7c0,0.4,0,0.9,0,1.9v4.7h-0.6l-4.9-5.9v2.7c0,1,0,1.6,0,1.9
					c0,0.6,0.3,0.7,1.1,0.9v0.4h-2.9v-0.4c0.7,0,1-0.3,1-0.9c0-0.4,0-0.9,0-1.9v-2.9c0-0.4,0-0.6-0.3-0.9c-0.3-0.3-0.4-0.3-1-0.4
					v-0.4h2.1l4.6,5.4v-2.4c0-1,0-1.4,0-1.9c0-0.6-0.3-0.7-1.1-0.7v-0.4h2.9L747,403L747,403z"/>
				<path class="st3" d="M755.5,406.9c-0.7,0.1-0.7,0.1-0.7,0.9v0.9c0,0.4,0,0.9,0,1.1c-0.6,0.1-1.9,0.4-2.7,0.4
					c-2.7,0-4.3-1.7-4.3-4c0-2.6,2.1-4,4.6-4c1,0,2,0.3,2.4,0.3c0,0.4,0.1,1.3,0.1,2l-0.4,0.1c-0.3-1-0.7-1.4-1.4-1.7
					c-0.3-0.1-0.7-0.1-1-0.1c-1.6,0-2.6,1.3-2.6,3.3c0,2,0.9,3.7,2.9,3.7c0.3,0,0.6,0,0.9-0.1c0.1-0.1,0.3-0.3,0.3-0.7v-1
					c0-0.9-0.1-0.9-1.1-1v-0.4h3.3L755.5,406.9L755.5,406.9z"/>
				<path class="st3" d="M756.3,402.6h3.4v0.4c-0.9,0.1-1,0.1-1,1.1v2c0.3,0,0.6-0.3,0.9-0.6c0.7-0.7,1.3-1.4,1.7-1.9
					c0.3-0.4,0.3-0.6-0.3-0.6h-0.3v-0.4h3v0.4c-0.9,0.1-1.3,0.1-2,1c-0.4,0.4-1.1,1.1-1.7,1.7c0.9,1,1.9,2.4,2.6,3.3
					c0.4,0.6,0.6,0.7,1.3,0.7v0.4h-2.1c-0.6-0.9-1.6-2.1-2.6-3.3c-0.3-0.3-0.4-0.4-0.6-0.4v2.1c0,1,0.1,1,1,1.1v0.4h-3.4v-0.4
					c0.9-0.1,1-0.1,1-1.1v-4.4c0-1-0.1-1.1-1-1.1v-0.6L756.3,402.6L756.3,402.6z"/>
				<path class="st3" d="M768.4,402.4c2.1,0,3.9,1.6,3.9,3.9c0,2.4-1.7,4-4,4s-4-1.7-4-4C764.2,404.3,765.8,402.4,768.4,402.4z
					 M768.1,402.9c-1.3,0-2.1,1.1-2.1,3.3c0,2,0.9,3.7,2.6,3.7c1.1,0,2.1-1,2.1-3.3C770.5,404.1,769.5,402.9,768.1,402.9z"/>
				<path class="st3" d="M781.2,403c-0.7,0.1-1,0.3-1,0.7c0,0.4,0,0.9,0,1.9v4.7h-0.6l-4.9-5.9v2.7c0,1,0,1.6,0,1.9
					c0,0.6,0.3,0.7,1.1,0.9v0.4h-2.9v-0.4c0.7,0,1-0.3,1-0.9c0-0.4,0-0.9,0-1.9v-2.9c0-0.4,0-0.6-0.3-0.9c-0.3-0.3-0.4-0.3-1-0.4
					v-0.4h2.1l4.6,5.4v-2.4c0-1,0-1.4,0-1.9c0-0.6-0.3-0.7-1.1-0.7v-0.4h2.9L781.2,403L781.2,403z"/>
				<path class="st3" d="M789.8,406.9c-0.7,0.1-0.7,0.1-0.7,0.9v0.9c0,0.4,0,0.9,0,1.1c-0.6,0.1-1.9,0.4-2.7,0.4
					c-2.7,0-4.3-1.7-4.3-4c0-2.6,2.1-4,4.6-4c1,0,2,0.3,2.4,0.3c0,0.4,0.1,1.3,0.1,2l-0.4,0.1c-0.3-1-0.7-1.4-1.4-1.7
					c-0.3-0.1-0.7-0.1-1-0.1c-1.6,0-2.6,1.3-2.6,3.3c0,2,0.9,3.7,2.9,3.7c0.3,0,0.6,0,0.9-0.1c0.1-0.1,0.3-0.3,0.3-0.7v-1
					c0-0.9-0.1-0.9-1.1-1v-0.4h3.3L789.8,406.9L789.8,406.9z"/>
			</g>
		</g>
		<g>
			<g>
				<path class="st3" d="M689.9,501.6c-0.7,0.1-1,0.1-1.4,1.3c-0.3,0.9-1.7,4.1-2.4,6h-0.6c-0.4-1.3-1.9-4.9-2.3-6.2
					c-0.3-0.9-0.6-1-1.3-1.1v-0.4h3.3v0.4c-0.9,0.1-0.9,0.1-0.7,0.7c0.3,1,1.1,3.3,1.7,4.7c0.7-1.6,1.3-3.3,1.7-4.3
					c0.3-0.7,0.1-0.9-0.9-1v-0.6h2.7L689.9,501.6L689.9,501.6z"/>
				<path class="st3" d="M689.9,508.7v-0.4c0.9-0.1,1-0.1,1-1.1v-4.6c0-1-0.1-1-1-1.1v-0.3h3.4v0.4c-0.9,0.1-1,0.1-1,1.1v4.6
					c0,1,0.1,1,1,1.1v0.4L689.9,508.7L689.9,508.7z"/>
				<path class="st3" d="M700.6,506.9c0,0.3-0.4,1.6-0.4,2h-5.9v-0.4c1-0.1,1.1-0.1,1.1-1.1v-4.6c0-1-0.1-1.1-1-1.1v-0.4h3.7
					c1.1,0,1.6,0,1.7,0c0,0.3,0,1.1,0.1,1.9h-0.4c-0.1-0.4-0.3-0.9-0.4-1c-0.1-0.3-0.4-0.4-1-0.4h-0.9c-0.4,0-0.4,0-0.4,0.4v2.4h1.1
					c0.7,0,0.9-0.1,1-1h0.4v2.6h-0.4c-0.1-0.9-0.3-1-1-1h-1.1v2.1c0,0.9,0.1,1,0.7,1h0.9c0.7,0,0.9-0.1,1.1-0.4s0.6-0.7,0.7-1.1
					L700.6,506.9z"/>
				<path class="st3" d="M707.6,503.1c-0.1-0.4-0.3-0.9-0.4-1.1s-0.3-0.4-1-0.4h-0.9v5.6c0,1,0.1,1,1.1,1.1v0.4h-3.7v-0.4
					c1-0.1,1.1-0.1,1.1-1.1v-5.6h-0.9c-0.7,0-0.9,0.1-1,0.4c-0.1,0.3-0.3,0.6-0.4,1h-0.4c0.1-0.9,0.1-1.7,0.1-2.3h0.3
					c0.1,0.3,0.3,0.3,0.7,0.3h4.7c0.3,0,0.4,0,0.7-0.3h0.3c0,0.6,0,1.4,0.1,2.1L707.6,503.1z"/>
				<path class="st3" d="M716.9,501.6c-0.7,0.1-1,0.3-1,0.7c0,0.4,0,0.9,0,1.9v4.7h-0.6l-4.9-5.9v2.7c0,1,0,1.6,0,1.9
					c0,0.6,0.3,0.7,1.1,0.9v0.4h-2.9v-0.4c0.7,0,1-0.3,1-0.9c0-0.4,0-0.9,0-1.9v-2.9c0-0.4,0-0.6-0.3-0.9c-0.3-0.3-0.4-0.3-1-0.4
					v-0.4h2.1l4.6,5.4v-2.4c0-1,0-1.4,0-1.9c0-0.6-0.3-0.7-1.1-0.7v-0.4h2.9L716.9,501.6L716.9,501.6z"/>
				<path class="st3" d="M721.4,508.7v-0.4c0.7-0.1,0.7-0.3,0.6-0.7c-0.1-0.4-0.3-1-0.6-1.4h-2.4c-0.1,0.4-0.3,0.9-0.4,1.3
					c-0.3,0.7,0,0.9,0.9,1v0.4h-2.9v-0.4c0.7-0.1,0.9-0.1,1.3-1.1l2.4-6l0.4-0.1c0.7,2,1.6,4.1,2.3,6.2c0.4,1,0.6,1.1,1.3,1.3v0.4
					h-2.9V508.7z M720.4,503c-0.3,0.9-0.7,1.7-1,2.7h2L720.4,503z"/>
				<path class="st3" d="M731.1,508.7v-0.4c0.9-0.1,1-0.1,1-1.3v-4.6c-0.9,2-2,4.7-2.7,6.3h-0.3c-0.6-1.6-1.6-4.1-2.4-6.2
					c-0.1,3.9-0.1,4.6-0.1,5c0,0.6,0.3,0.7,1.1,0.9v0.4h-2.9v-0.4c0.7,0,1-0.1,1-0.9c0-0.4,0.1-1,0.4-5c0-0.6,0-0.9-1-1v-0.4h2.3
					l2.4,5.4l2.4-5.4h2.3v0.4c-1,0.1-1,0.1-1,1.1l0.1,4.4c0,1.1,0,1.1,1,1.3v0.4L731.1,508.7L731.1,508.7z"/>
			</g>
		</g>
	</g>
</g>
<circle class="st4" cx="894.1" cy="318.7" r="8.4"/>
<circle class="st4" cx="941.2" cy="365.9" r="8.4"/>
<circle class="st4" cx="894" cy="448.9" r="8.4"/>
</svg>
